# Blender v2.76 (sub 0) OBJ File: ''
# www.blender.org
mtllib cypriot sarcophagus lid.mtl
o group_0.003_ID37
v 5.201277 1.182622 -2.065212
v 2.789708 1.102622 -2.065212
v 5.201277 1.102622 -2.065212
v 2.789708 1.182622 -2.065212
v 3.699791 1.182622 -2.065212
v 5.201277 1.182622 -1.370306
v 5.201277 1.102622 -1.010306
v 5.201277 1.182622 -1.010306
v 5.201277 1.102622 -2.065212
v 5.201277 1.182622 -1.559987
v 5.201277 1.182622 -2.065212
v 2.789708 1.102622 -2.065212
v 2.789708 1.182622 -1.010306
v 2.789708 1.102622 -1.010306
v 2.789708 1.182622 -1.559987
v 2.789708 1.182622 -2.065212
v 2.789708 1.182622 -1.010306
v 5.201277 1.102622 -1.010306
v 2.789708 1.102622 -1.010306
v 5.201277 1.182622 -1.010306
vt 8.532278 -2.794327
vt 4.576293 -2.925561
vt 8.532278 -2.925561
vt 4.576293 -2.794327
vt 6.069212 -2.794327
vt -3.850776 -2.794327
vt -3.260225 -2.925561
vt -3.260225 -2.794327
vt -4.990714 -2.925561
vt -4.161934 -2.794327
vt -4.990714 -2.794327
vt 7.636037 -2.925561
vt 5.905548 -2.794327
vt 5.905548 -2.925561
vt 6.807256 -2.794327
vt 7.636037 -2.794327
vt -1.930970 -2.794327
vt -5.886955 -2.925561
vt -1.930970 -2.925561
vt -5.886955 -2.794327
vn 0.000000 0.000000 1.000000
vn -1.000000 0.000000 0.000000
vn 1.000000 0.000000 0.000000
vn 0.000000 0.000000 -1.000000
usemtl Stone_Brushed_Khaki
s off
f 1/1/1 2/2/1 3/3/1
f 2/2/1 1/1/1 4/4/1
f 4/4/1 1/1/1 5/5/1
f 6/6/2 7/7/2 8/8/2
f 7/7/2 6/6/2 9/9/2
f 9/9/2 6/6/2 10/10/2
f 9/9/2 10/10/2 11/11/2
f 12/12/3 13/13/3 14/14/3
f 13/13/3 12/12/3 15/15/3
f 15/15/3 12/12/3 16/16/3
f 17/17/4 18/18/4 19/19/4
f 18/18/4 17/17/4 20/20/4
o group_0.002_ID24
v 2.692161 1.102622 -2.162759
v 2.789708 1.102622 -2.065212
v 2.692161 1.102622 -0.912759
v 5.002131 1.102622 -2.162759
v 5.201277 1.102622 -2.065212
v 5.298823 1.102622 -2.162759
v 5.201277 1.102622 -1.010306
v 2.789708 1.102622 -1.010306
v 3.323404 1.102622 -0.912759
v 5.298823 1.102622 -0.912759
vt -1.770952 3.547833
vt -1.930970 3.387815
vt -1.770952 1.497308
vt -5.560274 3.547833
vt -5.886955 3.387815
vt -6.046973 3.547833
vt -5.886955 1.657326
vt -1.930970 1.657326
vt -2.806454 1.497308
vt -6.046973 1.497308
vn 0.000000 -1.000000 0.000000
usemtl Stone_Brushed_Khaki
s off
f 21/21/5 22/22/5 23/23/5
f 22/22/5 21/21/5 24/24/5
f 22/22/5 24/24/5 25/25/5
f 25/25/5 24/24/5 26/26/5
f 25/25/5 26/26/5 27/27/5
f 23/23/5 28/28/5 29/29/5
f 28/28/5 23/23/5 22/22/5
f 29/29/5 28/28/5 27/27/5
f 29/29/5 27/27/5 30/30/5
f 30/30/5 27/27/5 26/26/5
o group_0.001_ID16
v 5.201277 1.182622 -1.010306
v 2.789708 1.182622 -1.559987
v 2.789708 1.182622 -1.010306
v 5.201277 1.182622 -1.559987
v 5.201277 1.182622 -1.370306
v 2.789708 1.182622 -2.065212
v 3.699791 1.182622 -2.065212
v 5.201277 1.182622 -2.065212
vn 0.000000 1.000000 0.000000
usemtl material
s off
f 31//6 32//6 33//6
f 32//6 31//6 34//6
f 34//6 31//6 35//6
f 34//6 36//6 32//6
f 36//6 34//6 37//6
f 37//6 34//6 38//6
o group_0_ID3
v 2.789708 1.182622 -1.559987
v 2.692161 1.182622 -1.559987
v 2.789708 1.182622 -1.010306
v 2.692161 1.182622 -0.912759
v 3.323404 1.182622 -0.912759
v 5.201277 1.182622 -1.010306
v 5.298823 1.182622 -0.912759
v 5.201277 1.182622 -1.370306
v 5.201277 1.182622 -1.559987
v 5.298823 1.182622 -1.559987
v 2.790650 1.187322 -1.011248
v 2.789708 1.182622 -1.559987
v 2.789708 1.182622 -1.010306
v 2.790650 1.187322 -2.064270
v 2.789708 1.182622 -2.065212
v 2.692161 1.182622 -2.162759
v 2.789708 1.182622 -2.065212
v 3.699791 1.182622 -2.162759
v 3.699791 1.182622 -2.065212
v 2.692161 1.182622 -1.559987
v 2.692161 1.102622 -0.912759
v 2.692161 1.182622 -0.912759
v 2.692161 1.102622 -2.162759
v 2.692161 1.182622 -2.162759
v 3.323404 1.182622 -0.912759
v 2.692161 1.102622 -0.912759
v 3.323404 1.102622 -0.912759
v 2.692161 1.182622 -0.912759
v 5.298823 1.182622 -0.912759
v 5.298823 1.102622 -0.912759
v 5.298823 1.102622 -2.162759
v 5.298823 1.182622 -0.912759
v 5.298823 1.102622 -0.912759
v 5.298823 1.182622 -1.559987
v 5.298823 1.182622 -2.162759
v 5.201277 1.182622 -2.065212
v 5.002131 1.182622 -2.162759
v 5.298823 1.182622 -2.162759
v 5.201277 1.182622 -1.370306
v 5.200335 1.187322 -1.011248
v 5.201277 1.182622 -1.010306
v 5.200335 1.187322 -1.370306
v 5.201277 1.182622 -1.559987
v 5.200335 1.187322 -2.064270
v 5.201277 1.182622 -2.065212
v 5.200335 1.187322 -1.011248
v 2.789708 1.182622 -1.010306
v 5.201277 1.182622 -1.010306
v 2.790650 1.187322 -1.011248
v 2.790650 1.187322 -2.064270
v 3.699791 1.182622 -2.065212
v 2.789708 1.182622 -2.065212
v 5.201277 1.182622 -2.065212
v 5.200335 1.187322 -2.064270
v 2.793022 1.191488 -1.013619
v 2.793022 1.191488 -2.061898
v 2.692161 1.182622 -2.162759
v 5.002131 1.102622 -2.162759
v 2.692161 1.102622 -2.162759
v 5.002131 1.182622 -2.162759
v 3.699791 1.182622 -2.162759
v 5.002131 1.182622 -2.162759
v 5.298823 1.102622 -2.162759
v 5.002131 1.102622 -2.162759
v 5.298823 1.182622 -2.162759
v 5.197963 1.191488 -1.013619
v 5.197963 1.191488 -1.370306
v 5.197963 1.191488 -2.061898
v 5.197963 1.191488 -1.013619
v 2.793022 1.191488 -1.013619
v 2.793022 1.191488 -2.061898
v 5.197963 1.191488 -2.061898
v 2.796582 1.194697 -1.017180
v 2.796582 1.194697 -2.058338
v 5.194403 1.194697 -1.370306
v 5.194403 1.194697 -1.017180
v 5.194403 1.194697 -2.058338
v 2.796582 1.194697 -1.017180
v 5.194403 1.194697 -1.017180
v 2.796582 1.194697 -2.058338
v 5.194403 1.194697 -2.058338
v 2.800971 1.196625 -1.021568
v 2.800971 1.196625 -2.053949
v 5.190014 1.196625 -1.370306
v 5.190014 1.196625 -1.021568
v 5.190014 1.196625 -2.053949
v 2.800971 1.196625 -1.021568
v 5.190014 1.196625 -1.021568
v 2.800971 1.196625 -2.053949
v 5.190014 1.196625 -2.053949
v 2.805743 1.197075 -1.026340
v 2.805743 1.197075 -2.049177
v 5.185242 1.197075 -2.049177
v 5.185242 1.197075 -1.026340
v 2.805743 1.197075 -1.026340
v 5.185242 1.197075 -1.026340
v 2.805743 1.197075 -2.049177
v 5.185242 1.197075 -2.049177
v 2.805743 1.448463 -1.500587
v 2.805743 1.197075 -2.049177
v 2.805743 1.197075 -1.026340
v 2.805743 1.461930 -1.506388
v 2.805743 1.472202 -1.516853
v 2.805743 1.448463 -1.574931
v 2.805743 1.477750 -1.530427
v 2.805743 1.477750 -1.545091
v 2.805743 1.472202 -1.558664
v 2.805743 1.461930 -1.569130
v 5.185242 1.197075 -2.049177
v 5.185242 1.448463 -1.500587
v 5.185242 1.197075 -1.026340
v 5.185242 1.461930 -1.506388
v 5.185242 1.472202 -1.516853
v 5.185242 1.448463 -1.574931
v 5.185242 1.477750 -1.530427
v 5.185242 1.477750 -1.545091
v 5.185242 1.472202 -1.558664
v 5.185242 1.461930 -1.569130
v 5.185242 1.197075 -1.026340
v 2.805743 1.448463 -1.500587
v 2.805743 1.197075 -1.026340
v 5.185242 1.448463 -1.500587
v 2.805743 1.448463 -1.574931
v 5.185242 1.197075 -2.049177
v 2.805743 1.197075 -2.049177
v 5.185242 1.448463 -1.574931
v 5.185242 1.461930 -1.506388
v 2.805743 1.448463 -1.500587
v 5.185242 1.448463 -1.500587
v 2.805743 1.461930 -1.506388
v 2.805743 1.472202 -1.516853
v 5.185242 1.472202 -1.516853
v 2.805743 1.477750 -1.530427
v 5.185242 1.477750 -1.530427
v 2.805743 1.477750 -1.545091
v 5.185242 1.477750 -1.545091
v 2.805743 1.472202 -1.558664
v 5.185242 1.472202 -1.558664
v 2.805743 1.461930 -1.569130
v 5.185242 1.461930 -1.569130
v 5.185242 1.448463 -1.574931
v 2.805743 1.448463 -1.574931
vt -0.427071 0.315923
vt -0.405127 0.315923
vt -0.427071 0.453343
vt -0.405127 0.477730
vt -0.547129 0.477730
vt -0.969567 0.453343
vt -0.991511 0.477730
vt -0.969567 0.363343
vt -0.969567 0.315923
vt -0.991511 0.315923
vt -0.432145 0.456459
vt -0.410201 0.305766
vt -0.410201 0.456459
vt -0.432145 0.330152
vt -0.636874 0.305766
vt -0.636874 0.330152
vt -0.686860 0.293264
vt -0.541262 0.273264
vt -0.541262 0.293264
vt -0.822457 0.273264
vt -0.822457 0.293264
vt 0.152497 0.294493
vt 0.010496 0.274493
vt 0.152497 0.274493
vt 0.010496 0.294493
vt 0.574504 0.294649
vt 0.130122 0.274649
vt 0.574504 0.274649
vt 0.130122 0.294649
vt 0.953521 0.279277
vt 0.672327 0.299277
vt 0.672327 0.279277
vt 0.817924 0.299277
vt 0.953521 0.299277
vt -0.990696 0.456276
vt -0.968752 0.329970
vt -0.968752 0.456276
vt -0.630984 0.305584
vt -0.630984 0.329970
vt -0.923954 0.305584
vt -0.990696 0.305584
vt -0.405050 0.294042
vt -0.924691 0.274042
vt -0.405050 0.274042
vt -0.924691 0.294042
vt -0.631722 0.294042
vt -0.921920 0.294247
vt -0.988663 0.274247
vt -0.921920 0.274247
vt -0.988663 0.294247
vt 0.803419 0.372818
vt 0.926828 0.309971
vt 0.696735 0.309971
vt 0.804724 0.376185
vt 0.807079 0.378753
vt 0.820144 0.372818
vt 0.810132 0.380140
vt 0.813431 0.380140
vt 0.816484 0.378753
vt 0.818838 0.376185
vt 0.542780 1.313626
vt 0.007498 1.447815
vt 0.007498 1.313626
vt 0.542780 1.447815
vt -0.450218 -0.563573
vt -0.985500 -0.697762
vt -0.450218 -0.697762
vt -0.985500 -0.563573
vt 0.693340 0.307533
vt 0.816782 0.306358
vt 0.693128 0.306358
vt 0.930223 0.307533
vt 0.930435 0.306358
vt 0.774112 0.306358
vt 0.774112 0.307533
vt -0.970365 0.297112
vt -0.428081 0.295937
vt -0.970577 0.295937
vt -0.428293 0.297112
vt -0.428565 0.294637
vt -0.633082 0.293462
vt -0.428353 0.293462
vt -0.970850 0.293462
vt -0.970638 0.294637
vt 0.693873 0.308574
vt 0.929690 0.308574
vt 0.774112 0.308574
vt -0.969832 0.298153
vt -0.428826 0.298153
vt -0.429099 0.295678
vt -0.970105 0.295678
vt 0.694674 0.309376
vt 0.928889 0.309376
vt 0.774112 0.309376
vt -0.429627 0.298956
vt -0.969031 0.298956
vt -0.429900 0.296481
vt -0.969304 0.296481
vt 0.695661 0.309858
vt 0.927902 0.309858
vt 0.774112 0.309858
vt -0.430614 0.299438
vt -0.968044 0.299438
vt -0.430887 0.296962
vt -0.968316 0.296962
vt -0.431688 0.299550
vt -0.966970 0.299550
vt -0.431960 0.297075
vt -0.967243 0.297075
vt -0.967243 0.363289
vt -0.431960 0.359922
vt -0.967243 0.359922
vt -0.431960 0.363289
vt -0.431960 0.365857
vt -0.967243 0.365857
vt -0.431960 0.367244
vt -0.967243 0.367244
vn 0.000000 1.000000 0.000000
vn -1.000000 0.000000 0.000000
vn 0.000000 0.000000 1.000000
vn 1.000000 0.000000 0.000000
vn 0.000000 0.000000 -1.000000
vn 1.000000 0.000100 0.000000
vn 0.000000 0.883500 0.468300
vn 0.000000 0.883500 -0.468300
vn -0.948900 0.315600 0.000000
vn -0.980500 0.196600 0.000000
vn -0.980500 0.196500 0.000000
vn 0.980500 0.196500 0.000000
vn 0.948900 0.315600 0.000000
vn 0.980500 0.196600 0.000000
vn 0.936700 0.350100 0.000000
vn 0.948900 0.315500 0.000000
vn 0.000000 0.315600 0.948900
vn 0.000000 0.196600 0.980500
vn 0.000000 0.315600 -0.948900
vn 0.000000 0.196600 -0.980500
vn -0.815200 0.579100 0.000000
vn -0.815200 0.579200 0.000000
vn 0.815200 0.579100 0.000000
vn 0.502600 0.864500 0.000000
vn 0.000000 0.579100 0.815200
vn 0.000000 0.579100 -0.815200
vn -0.602600 0.798000 0.000000
vn 0.473500 0.525200 0.707100
vn 0.602600 0.798000 0.000000
vn 0.000000 0.798000 0.602600
vn 0.000000 0.798000 -0.602600
vn -0.327000 0.945000 0.000000
vn 0.205500 0.978600 0.000000
vn 0.327000 0.945000 0.000000
vn 0.326900 0.945000 0.000000
vn 0.000000 0.945000 0.327000
vn 0.000000 0.945000 -0.327000
vn -0.094100 0.995500 0.000000
vn 0.094000 0.995500 0.000000
vn 0.000000 0.995500 0.094100
vn 0.000000 0.995500 -0.094100
vn 0.000000 0.565300 0.824900
vn 0.000000 0.395600 0.918400
vn 0.000000 0.565200 0.824900
vn 0.000000 0.835300 0.549700
vn 0.000000 0.981200 0.192800
vn 0.000000 0.981200 -0.192800
vn 0.000000 0.835300 -0.549700
vn 0.000000 0.565200 -0.824900
vn 0.000000 0.395600 -0.918400
usemtl cypriot_sarcophagus
s off
f 39/31/7 40/32/7 41/33/7
f 42/34/7 41/33/7 40/32/7
f 41/33/7 42/34/7 43/35/7
f 41/33/7 43/35/7 44/36/7
f 44/36/7 43/35/7 45/37/7
f 44/36/7 45/37/7 46/38/7
f 46/38/7 45/37/7 47/39/7
f 47/39/7 45/37/7 48/40/7
f 39/41/7 54/42/7 40/43/7
f 54/42/7 39/41/7 55/44/7
f 54/42/7 55/44/7 56/45/7
f 56/45/7 55/44/7 57/46/7
f 58/47/8 59/48/8 60/49/8
f 59/48/8 58/47/8 61/50/8
f 61/50/8 58/47/8 62/51/8
f 63/52/9 64/53/9 65/54/9
f 64/53/9 63/52/9 66/55/9
f 67/56/9 65/57/9 68/58/9
f 65/57/9 67/56/9 63/59/9
f 69/60/10 70/61/10 71/62/10
f 70/61/10 69/60/10 72/63/10
f 72/63/10 69/60/10 73/64/10
f 48/65/7 74/66/7 47/67/7
f 74/66/7 56/68/7 57/69/7
f 56/68/7 74/66/7 75/70/7
f 75/70/7 74/66/7 76/71/7
f 76/71/7 74/66/7 48/65/7
f 95/72/11 96/73/11 97/74/11
f 96/73/11 95/72/11 98/75/11
f 98/75/9 95/72/9 99/76/9
f 100/77/11 101/78/11 102/79/11
f 101/78/11 100/77/11 103/80/11
f 137/81/8 138/82/8 139/83/8
f 138/82/8 137/81/8 140/84/8
f 138/82/8 140/84/8 141/85/8
f 138/82/8 141/85/8 142/86/8
f 142/86/8 141/85/8 143/87/8
f 142/86/8 143/87/8 144/88/8
f 142/86/8 144/88/8 145/89/8
f 142/86/8 145/89/8 146/90/8
f 147/82/10 148/81/10 149/83/10
f 148/81/10 147/82/10 150/84/10
f 150/84/10 147/82/10 151/85/10
f 151/85/12 147/82/12 152/86/12
f 151/85/10 152/86/10 153/87/10
f 153/87/10 152/86/10 154/88/10
f 154/88/10 152/86/10 155/89/10
f 155/89/10 152/86/10 156/90/10
f 157/91/13 158/92/13 159/93/13
f 158/92/13 157/91/13 160/94/13
f 161/95/14 162/96/14 163/97/14
f 162/96/14 161/95/14 164/98/14
s 1
f 49/99/15 50/100/16 51/101/16
f 50/100/16 49/99/15 52/102/15
f 50/100/16 52/102/15 53/103/17
f 77/104/18 78/99/19 79/101/20
f 78/99/19 77/104/18 80/105/21
f 80/105/21 77/104/18 81/100/18
f 80/105/21 81/100/18 82/102/22
f 82/102/22 81/100/18 83/103/18
f 84/106/23 85/107/24 86/108/24
f 85/107/24 84/106/23 87/109/23
f 88/110/25 89/111/26 90/112/26
f 89/111/26 88/110/25 91/113/26
f 91/113/26 88/110/25 92/114/25
f 93/115/27 52/102/15 49/99/15
f 52/102/15 93/115/27 94/116/28
f 80/105/21 104/115/29 78/99/19
f 104/115/29 80/105/21 105/117/30
f 105/117/30 80/105/21 82/102/22
f 105/117/30 82/102/22 106/116/29
f 107/118/31 87/109/23 84/106/23
f 87/109/23 107/118/31 108/119/31
f 109/120/32 92/114/25 88/110/25
f 92/114/25 109/120/32 110/121/32
f 111/122/33 94/116/28 93/115/27
f 94/116/28 111/122/33 112/123/33
f 104/115/29 113/124/34 114/122/35
f 113/124/34 104/115/29 115/123/35
f 115/123/35 104/115/29 106/116/29
f 106/116/29 104/115/29 105/117/30
f 107/118/31 116/125/36 108/119/31
f 116/125/36 107/118/31 117/126/36
f 118/127/37 110/121/32 109/120/32
f 110/121/32 118/127/37 119/128/37
f 120/129/38 112/123/33 111/122/33
f 112/123/33 120/129/38 121/130/38
f 114/122/35 122/131/39 123/129/40
f 122/131/39 114/122/35 124/130/41
f 124/130/41 114/122/35 115/123/35
f 115/123/35 114/122/35 113/124/34
f 117/126/36 125/132/42 116/125/36
f 125/132/42 117/126/36 126/133/42
f 127/134/43 119/128/37 118/127/37
f 119/128/37 127/134/43 128/135/43
f 129/83/44 121/130/38 120/129/38
f 121/130/38 129/83/44 130/82/44
f 123/129/40 131/82/45 132/83/45
f 131/82/45 123/129/40 124/130/41
f 124/130/41 123/129/40 122/131/39
f 126/133/42 133/136/46 125/132/42
f 133/136/46 126/133/42 134/137/46
f 135/138/47 128/135/43 127/134/43
f 128/135/43 135/138/47 136/139/47
f 165/140/48 166/141/49 167/142/49
f 166/141/49 165/140/48 168/143/50
f 165/140/48 169/144/51 168/143/50
f 169/144/51 165/140/48 170/145/51
f 170/145/51 171/146/52 169/144/51
f 171/146/52 170/145/51 172/147/52
f 172/147/52 173/146/53 171/146/52
f 173/146/53 172/147/52 174/147/53
f 174/147/53 175/144/54 173/146/53
f 175/144/54 174/147/53 176/145/54
f 176/145/54 177/143/55 175/144/54
f 177/143/55 176/145/54 178/140/55
f 177/143/55 179/142/56 180/141/56
f 179/142/56 177/143/55 178/140/55
