# Wavefront OBJ
# Created by fragMOTION 1.3.4
# http://www.fragmosoft.com

mtllib Dagger3.mtl
# 46 vertices
v 0.0168543 18.2229 0.440952
v 0.225155 18.2229 0.216074
v -0.312434 14.6026 0.552778
v 0.33148 14.6026 0.552778
v 0.00219107 18.2229 -0.0246317
v 0.33148 14.6026 -0.136458
v -0.206109 18.2229 0.200245
v -0.312434 14.6026 -0.136458
v 0.523667 18.4831 0.49453
v 0.023664 18.4831 0.49453
v 0.15925 19.3886 0.49453
v 0.523667 18.4831 -0.0782091
v 0.15925 19.3886 -0.0782091
v 0.023664 18.4831 -0.0782091
v -0.11192 19.3886 0.49453
v -0.11192 19.3886 -0.0782091
v -0.47634 18.4831 0.49453
v -0.47634 18.4831 -0.0782091
v -0.281492 18.0766 0.49453
v -0.281492 18.0766 -0.0782091
v 0.32882 18.0766 0.49453
v 0.32882 18.0766 -0.0782091
v 1.26127 14.4838 0.63641
v -0.0329041 14.4838 0.63641
v 0.366439 14.98 0.63641
v 1.26127 14.4838 -0.220087
v 0.366439 14.98 -0.220089
v -0.0329041 14.4838 -0.220087
v -0.432246 14.98 0.63641
v -0.432246 14.98 -0.220089
v -1.32707 14.4838 0.636408
v -1.32707 14.4838 -0.220087
v -1.0094 14.2422 0.444395
v -1.0094 14.2422 -0.0280745
v 0.943593 14.2422 0.444395
v 0.943593 14.2422 -0.0280745
v 0.312325 1.37637 0.20816
v -0.0233588 0.402765 0.20816
v -0.0233612 0.402765 0.223249
v 0.404515 14.4609 0.20816
v -0.0233612 14.4609 0.263601
v -0.0233588 14.4609 0.20816
v -0.248418 1.48069 0.20816
v -0.451234 14.4609 0.20816
v -0.0233579 0.402765 0.193071
v -0.0233579 14.4609 0.152719
# 89 texture vertices
vt 0.00195312 -0.980469
vt 0.0388937 -0.980469
vt 0.137172 -0.00781254
vt 0.193359 -0.980469
vt 0.174118 -0.00781254
vt 0.079186 -0.980469
vt 0.0196519 -0.00781254
vt 0.0599392 -0.00781254
vt 0.116126 -0.980469
vt 0.0968848 -0.00781254
vt 0.156419 -0.980469
vt 0.619141 -0.883636
vt 0.778469 -0.883636
vt 0.735264 -0.677659
vt 0.937798 -0.883695
vt 0.821675 -0.677721
vt 0.899172 -0.795225
vt 0.899172 -0.705821
vt 0.811103 -0.795224
vt 0.811103 -0.705821
vt 0.76619 -0.685169
vt 0.649855 -0.925484
vt 0.76619 -0.925484
vt 0.649855 -0.685169
vt 0.811103 -0.835366
vt 0.811103 -0.92477
vt 0.899171 -0.835366
vt 0.899171 -0.924769
vt 0.875709 -0.976116
vt 0.68123 -0.976175
vt 0.899171 -0.96491
vt 0.811103 -0.964911
vt 0.720881 -0.675781
vt 0.62106 -0.675781
vt 0.720881 -0.826128
vt 0.62106 -0.826128
vt 0.619141 -0.884108
vt 0.805664 -0.884108
vt 0.748108 -0.678204
vt 0.992187 -0.883561
vt 0.863219 -0.677659
vt 0.805664 -0.883561
vt 0.972351 -0.683291
vt 0.852232 -0.683291
vt 0.972351 -0.85414
vt 0.852232 -0.85414
vt 0.863219 -0.678204
vt 0.748108 -0.677659
vt 0.745019 -0.85414
vt 0.745019 -0.683291
vt 0.992187 -0.884108
vt 0.624899 -0.683291
vt 0.624899 -0.85414
vt 0.946403 -0.984374
vt 0.664925 -0.983828
vt 0.97875 -0.790307
vt 0.934615 -0.936309
vt 0.97875 -0.978498
vt 0.934615 -0.832497
vt 0.664926 -0.984375
vt 0.946402 -0.983827
vt 0.663276 -0.832497
vt 0.663276 -0.936309
vt 0.619141 -0.978498
vt 0.619141 -0.790307
vt 0.581177 -0.273438
vt 0.395081 -0.273437
vt 0.395081 -0.298828
vt 0.406901 -0.272516
vt 0.323567 -0.263672
vt 0.323568 -0.272516
vt 0.776157 -0.289748
vt 0.818359 -0.271415
vt 0.208984 -0.294783
vt 0.208984 -0.271415
vt 0.208984 -0.250504
vt 0.208984 -0.273438
vt 0.240234 -0.272516
vt 0.208984 -0.248047
vt 0.771635 -0.259123
vt 0.208984 -0.296371
vt 0.323568 -0.281361
vt 0.771635 -0.289705
vt 0.818359 -0.277413
vt 0.208984 -0.300781
vt 0.208984 -0.277413
vt 0.395081 -0.248047
vt 0.208984 -0.254045
vt 0.776157 -0.25908
# 53 normals
vn 0.732864 -0.0456894 0.678839
vn 0.400803 0.0256572 0.915805
vn 0 0.0926034 0.995703
vn 0.732991 -0.0416189 -0.678964
vn 0.930472 0.026351 -0.365414
vn 0.625149 0.740888 -0.245508
vn 0.995889 0.0905808 0
vn -0.732862 -0.0456892 -0.678841
vn -0.400801 0.0256571 -0.915806
vn 0 0.0926029 -0.995703
vn -0.732994 -0.041618 0.678961
vn -0.930473 0.0263515 0.365412
vn -0.6418 -0.724269 0.252045
vn -0.995889 0.0905808 0
vn 0 1 0
vn 0.430065 0.902798 0
vn 0 -1 0
vn -0.322481 -0.898209 0.298708
vn 0 0 1
vn 0 0 -1
vn 0.927684 0.373367 2.4868e-006
vn 0.559746 0.828664 -8.78783e-006
vn -0.559745 0.828665 -8.7878e-006
vn -0.999483 -0.0321485 -2.25205e-006
vn -0.532815 -0.846232 -5.63628e-006
vn 0.532816 -0.846231 -5.63628e-006
vn 0.901771 -0.432214 -2.87874e-006
vn 0 -0.329476 0.944164
vn 0 -0.329475 -0.944164
vn 0.484937 0.874549 1.94755e-006
vn 0.25045 0.96813 -1.15011e-006
vn -0.25045 0.96813 -1.15011e-006
vn -0.484936 0.87455 6.13909e-012
vn -5.76915e-007 -0.622157 0.782892
vn 0 -0.622155 -0.782894
vn -0.605385 -0.795933 -2.49282e-006
vn -0.319427 -0.947611 -3.4454e-006
vn 0.319426 -0.947611 -3.4454e-006
vn 0.605383 -0.795934 -2.49283e-006
vn 0.945386 -0.325954 0.000104565
vn 0.0458393 -0.00032297 0.998949
vn -0.00664372 -0.00179541 0.999976
vn 0.0872437 -0.00158613 0.996186
vn -4.95849e-007 -0.00287034 0.999996
vn -0.978891 -0.204382 -0.000154672
vn -0.100429 -0.00198875 0.994942
vn -0.0722792 -0.00112936 0.997384
vn -0.0722781 -0.00112934 -0.997384
vn -0.00664282 -0.0017954 -0.999976
vn -0.100428 -0.00198874 -0.994942
vn 4.95849e-007 -0.00287034 -0.999996
vn 0.0872444 -0.00158613 -0.996186
vn 0.0458398 -0.000322973 -0.998949
usemtl Texture
g Group
s off
f 1/1/1 3/3/2 2/2/2
f 3/3/2 4/5/3 2/4/2
f 2/2/4 4/7/5 5/6/5
f 4/7/5 6/8/7 5/6/6
f 5/6/8 6/8/9 7/9/9
f 6/8/9 8/10/10 7/9/9
f 7/9/11 8/10/13 1/11/12
f 8/10/12 3/3/14 1/1/12
f 7/9/15 1/1/15 5/6/16
f 1/1/15 2/2/15 5/6/16
f 3/3/17 8/10/18 4/7/17
f 8/10/18 6/8/17 4/7/17
f 9/12/19 11/14/19 10/13/19
f 12/15/20 14/13/20 13/16/20
f 9/17/21 12/19/21 11/18/22
f 12/19/21 13/20/22 11/18/22
f 11/14/19 15/16/19 10/13/19
f 13/16/20 14/13/20 16/14/20
f 11/21/22 13/23/22 16/22/23
f 11/21/22 16/22/23 15/24/23
f 15/16/19 17/15/19 10/13/19
f 16/14/20 14/13/20 18/12/20
f 15/25/23 16/27/23 17/26/24
f 16/27/23 18/28/24 17/26/24
f 17/15/19 19/29/19 10/13/19
f 18/12/20 14/13/20 20/30/20
f 17/26/24 18/28/24 20/31/25
f 17/26/24 20/31/25 19/32/25
f 19/29/19 21/30/19 10/13/19
f 20/30/20 14/13/20 22/29/20
f 19/33/25 20/35/25 21/34/26
f 20/35/25 22/36/26 21/34/26
f 21/30/19 9/12/19 10/13/19
f 22/29/20 14/13/20 12/15/20
f 21/27/26 22/25/26 12/19/27
f 21/27/26 12/19/27 9/17/27
f 23/37/28 25/39/19 24/38/28
f 26/40/29 28/42/29 27/41/20
f 23/43/30 26/45/30 25/44/31
f 26/45/30 27/46/31 25/44/31
f 25/39/19 29/47/19 24/38/28
f 27/41/20 28/42/29 30/48/20
f 25/44/31 27/46/31 30/49/32
f 25/44/31 30/49/32 29/50/32
f 29/47/19 31/51/28 24/38/28
f 30/48/20 28/42/29 32/12/29
f 29/50/32 30/49/32 31/52/33
f 30/49/32 32/53/33 31/52/33
f 31/51/28 33/54/34 24/38/28
f 32/12/29 28/42/29 34/55/35
f 31/56/36 32/58/36 34/57/37
f 31/56/36 34/57/37 33/59/37
f 33/54/34 35/60/34 24/38/28
f 34/55/35 28/42/29 36/61/35
f 33/59/37 34/57/37 35/62/38
f 34/57/37 36/63/38 35/62/38
f 35/60/34 23/37/28 24/38/28
f 36/61/35 28/42/29 26/40/29
f 35/62/38 36/63/38 26/64/39
f 35/62/38 26/64/39 23/65/39
f 37/66/40 39/68/40 38/67/40
f 40/69/15 42/71/15 41/70/15
f 37/72/41 40/74/43 39/73/42
f 40/74/43 41/75/44 39/73/42
f 39/76/45 43/67/45 38/77/45
f 41/70/15 42/71/15 44/78/15
f 39/73/42 41/75/44 44/79/46
f 39/73/42 44/79/46 43/80/47
f 43/67/45 45/81/45 38/77/45
f 44/78/15 42/71/15 46/82/15
f 43/83/48 44/85/50 45/84/49
f 44/85/50 46/86/51 45/84/49
f 45/87/40 37/66/40 38/67/40
f 46/82/15 42/71/15 40/69/15
f 45/84/49 46/86/51 40/88/52
f 45/84/49 40/88/52 37/89/53
