# Wavefront OBJ
# Created by fragMOTION 1.3.4
# http://www.fragmosoft.com

mtllib TALLWINDOW1.mtl
# 144 vertices
v -29.3844 0.904308 -2.01788
v -29.3844 0.904308 2.03344
v -27.8927 0.849503 2.03344
v -27.8927 0.849503 -2.01788
v -27.5919 64.1256 2.03344
v -25.4727 64.0073 2.03344
v -27.6697 56.8202 2.03344
v -29.5231 56.8629 2.03344
v -27.5919 64.1256 -2.01788
v -29.5231 56.8629 -2.01788
v -25.4727 64.0073 -2.01788
v -27.6697 56.8202 -2.01788
v -24.2472 70.0231 2.03344
v -22.011 69.6485 2.03344
v -24.2472 70.0231 -2.01788
v -22.011 69.6485 -2.01788
v -20.302 74.4928 2.03344
v -19.0131 72.8377 2.03344
v -20.302 74.4928 -2.01788
v -19.0131 72.8377 -2.01788
v -15.5008 77.6345 2.03344
v -15.3294 75.5582 2.03344
v -15.5008 77.6345 -2.01788
v -15.3294 75.5582 -2.01788
v -10.6995 74.4928 2.03344
v -11.6457 72.8377 2.03344
v -10.6995 74.4928 -2.01788
v -11.6457 72.8377 -2.01788
v -7.81677 70.488 2.03344
v -9.71028 69.9141 2.03344
v -7.81677 70.488 -2.01788
v -9.71028 69.9141 -2.01788
v -3.97211 63.5944 2.03344
v -5.62362 63.6089 2.03344
v -3.97211 63.5944 -2.01788
v -5.62362 63.6089 -2.01788
v -2.20458 56.2905 2.03344
v -3.95338 56.7727 2.03344
v -2.20458 56.2905 -2.01788
v -3.95338 56.7727 -2.01788
v -4.18047 0.810215 -2.01788
v -4.18047 0.810215 2.03344
v -2.2028 0.915619 2.03344
v -2.2028 0.915619 -2.01788
v -28.4981 2.55922 1.82956
v -3.2156 2.55922 1.82956
v -28.4981 0.955452 1.82956
v -3.2156 0.955452 1.82956
v -3.2156 2.55922 -1.86289
v -3.2156 0.955452 -1.86289
v -28.4981 2.55922 -1.86289
v -28.4981 0.955452 -1.86289
v -16.9984 1.66383 0.983545
v -16.9984 1.66383 -0.783545
v -16.5082 58.8487 -0.938135
v -16.5082 58.8487 1.13813
v -24.0639 69.9813 -0.938135
v -24.0639 69.9813 1.13813
v -22.2203 69.9813 -0.938135
v -22.2203 69.9813 1.13813
v -16.3098 59.8179 -0.938135
v -16.3098 59.8179 1.13813
v -15.9759 59.3853 -0.938135
v -15.9759 59.3853 1.13813
v -15.6553 59.7836 -0.938135
v -15.6553 59.7836 1.13813
v -9.54529 70.2406 -0.938135
v -9.54529 70.2406 1.13813
v -7.77955 70.2406 -0.938135
v -7.77955 70.2406 1.13813
v -15.5638 58.8487 -0.938135
v -15.5638 58.8487 1.13813
v -15.3702 1.66383 -0.783545
v -15.3702 1.66383 0.983545
v -28.3459 1.16489 0.983545
v -28.3459 1.16489 -0.783545
v -22.4637 58.2094 -0.938135
v -22.4637 58.2094 1.13813
v -26.364 66.1813 -0.938135
v -26.364 66.1813 1.13813
v -24.5203 66.1813 -0.938135
v -24.5203 66.1813 1.13813
v -22.321 59.475 -0.938135
v -22.321 59.475 1.13813
v -22.0807 58.9101 -0.938135
v -22.0807 58.9101 1.13813
v -21.8501 59.4302 -0.938135
v -21.8501 59.4302 1.13813
v -13.0453 74.2406 -0.938135
v -13.0453 74.2406 1.13813
v -11.2795 74.2406 -0.938135
v -11.2795 74.2406 1.13813
v -21.7843 58.2094 -0.938135
v -21.7843 58.2094 1.13813
v -26.7177 1.16489 -0.783545
v -26.7177 1.16489 0.983545
v -3.24387 0.865532 -0.783545
v -3.24387 0.865532 0.983545
v -9.07329 57.8937 -0.938135
v -9.07329 57.8937 1.13813
v -5.28309 65.8813 -0.938135
v -5.28309 65.8813 1.13813
v -7.12669 65.8813 -0.938135
v -7.12669 65.8813 1.13813
v -9.25838 59.1927 -0.938135
v -9.25838 59.1927 1.13813
v -9.57002 58.6128 -0.938135
v -9.57002 58.6128 1.13813
v -9.86916 59.1467 -0.938135
v -9.86916 59.1467 1.13813
v -18.6018 73.9406 -0.938135
v -18.6018 73.9406 1.13813
v -20.3675 73.9406 -0.938135
v -20.3675 73.9406 1.13813
v -9.95454 57.8937 -0.938135
v -9.95454 57.8937 1.13813
v -4.87206 0.865532 -0.783545
v -4.87206 0.865532 0.983545
v -2.9742 56.2221 -0.0637133
v -15.8728 56.2221 -0.0637133
v -3.01141 1.70429 -0.0637129
v -2.9742 56.2221 0.0471361
v -3.01141 1.70429 0.0471358
v -15.8728 56.2221 0.0471361
v -4.81147 1.49227 -0.0637126
v -4.81147 1.49227 0.0471357
v -15.7785 1.44669 -0.0637128
v -15.7785 1.44668 0.0471362
v -26.7439 1.49227 -0.0637126
v -26.7439 1.49227 0.0471357
v -28.5456 1.70429 -0.0637129
v -28.5456 1.70429 0.0471358
v -28.7713 56.2221 -0.0637133
v -28.7713 56.2221 0.0471361
v -26.8166 63.655 -0.0637126
v -26.4966 63.655 0.0471359
v -21.5466 71.8469 -0.0637122
v -21.5466 71.8469 0.047136
v -15.3374 76.6031 -0.0637137
v -15.3374 76.6031 0.047134
v -10.0104 71.8469 -0.0637122
v -10.0104 71.8469 0.047136
v -4.74087 63.655 -0.0637126
v -5.06094 63.655 0.0471359
# 326 texture vertices
vt 0.834636 -0.10199
vt 0.834636 -0.0253906
vt 0.806088 -0.0253906
vt 0.806088 -0.10199
vt 0.200024 -0.0289205
vt 0.201497 -0.0467249
vt 0.290974 -0.0282668
vt 0.290442 -0.0126956
vt 0.600864 -0.0557098
vt 0.600864 -0.225622
vt 0.645528 -0.225621
vt 0.645528 -0.0557094
vt 0.171607 -0.208196
vt 0.170135 -0.226
vt 0.260554 -0.242226
vt 0.261086 -0.226654
vt 0.148501 -0.0556656
vt 0.148501 -0.225666
vt 0.192724 -0.225666
vt 0.192724 -0.0556641
vt 0.126602 -0.0570206
vt 0.131265 -0.075808
vt 0.564597 -0.0557098
vt 0.564597 -0.225622
vt 0.101376 -0.179113
vt 0.0967128 -0.1979
vt 0.113791 -0.0556656
vt 0.113791 -0.225667
vt 0.0709551 -0.0901666
vt 0.091561 -0.100994
vt 0.537109 -0.0557098
vt 0.537109 -0.225622
vt 0.0616723 -0.153926
vt 0.0410659 -0.164754
vt 0.0941685 -0.0556656
vt 0.0941685 -0.225667
vt 0.031842 -0.130504
vt 0.0576922 -0.131943
vt 0.68355 -0.207371
vt 0.68355 -0.0751953
vt 0.589774 -0.0751953
vt 0.589774 -0.207371
vt 0.0278035 -0.122978
vt 0.00195323 -0.124417
vt 0.565661 -0.0253906
vt 0.565661 -0.10199
vt 0.636158 -0.10199
vt 0.636158 -0.0253906
vt 0.0709551 -0.170841
vt 0.091561 -0.162892
vt 0.777327 -0.207371
vt 0.777327 -0.0751953
vt 0.0616723 -0.0920292
vt 0.0410659 -0.0840802
vt 0.495165 -0.0253906
vt 0.495165 -0.10199
vt 0.120814 -0.19506
vt 0.127958 -0.179152
vt 0.108626 -0.225667
vt 0.108626 -0.0556656
vt 0.0839844 -0.0556656
vt 0.0839844 -0.225667
vt 0.0980696 -0.0757689
vt 0.0909257 -0.0598607
vt 0.565267 -0.225622
vt 0.565267 -0.0557098
vt 0.547288 -0.0557098
vt 0.547288 -0.225622
vt 0.206638 -0.227361
vt 0.206457 -0.213486
vt 0.151042 -0.225666
vt 0.151042 -0.0556656
vt 0.176568 -0.041435
vt 0.176749 -0.0275599
vt 0.604042 -0.225622
vt 0.604042 -0.0557098
vt 0.297568 -0.242211
vt 0.291565 -0.227518
vt 0.195982 -0.225666
vt 0.195982 -0.0556641
vt 0.261676 -0.0274026
vt 0.267679 -0.0127104
vt 0.646083 -0.225621
vt 0.646083 -0.0557094
vt 0.987792 -0.0263937
vt 0.98711 -0.0138611
vt 0.989656 -0.225621
vt 0.989656 -0.0557094
vt 0.957221 -0.24106
vt 0.957903 -0.228527
vt 0.352301 -0.10199
vt 0.352301 -0.0253906
vt 0.314453 -0.0253906
vt 0.314453 -0.10199
vt 0.986969 -0.242225
vt 0.988281 -0.22561
vt 0.990234 -0.225621
vt 0.990234 -0.0557094
vt 0.958393 -0.0293104
vt 0.95708 -0.0126953
vt 0.536703 -0.225666
vt 0.536703 -0.0556641
vt 0.966506 -0.0213072
vt 0.966506 -0.233717
vt 0.986473 -0.0213072
vt 0.986473 -0.233717
vt 0.52659 -0.0642194
vt 0.52659 -0.219163
vt 0.536457 -0.0642194
vt 0.536457 -0.219163
vt 0.936618 -0.0212041
vt 0.936618 -0.233614
vt 0.956584 -0.0212041
vt 0.956584 -0.233614
vt 0.979478 -0.0622092
vt 0.979478 -0.21707
vt 0.989341 -0.0622092
vt 0.989341 -0.21707
vt 0.429688 -0.202314
vt 0.923503 -0.202314
vt 0.429688 -0.0818471
vt 0.923503 -0.0818471
vt 0.817674 -0.0292455
vt 0.333835 -0.0292455
vt 0.817674 -0.0990591
vt 0.333835 -0.0990591
vt 0.984985 -0.181589
vt 0.984985 -0.107478
vt 0.633316 -0.100994
vt 0.633316 -0.188073
vt 0.564854 -0.100994
vt 0.564854 -0.188073
vt 0.516295 -0.104405
vt 0.516295 -0.172144
vt 0.552304 -0.172144
vt 0.552304 -0.104405
vt 0.111744 -0.0932334
vt 0.111744 -0.180358
vt 0.174278 -0.180358
vt 0.174278 -0.0932334
vt 0.176941 -0.180358
vt 0.176941 -0.0932334
vt 0.630016 -0.188073
vt 0.630016 -0.100994
vt 0.627566 -0.100994
vt 0.627566 -0.188073
vt 0.563259 -0.100994
vt 0.563259 -0.188073
vt 0.799872 -0.104405
vt 0.799872 -0.172144
vt 0.83436 -0.172144
vt 0.83436 -0.104405
vt 0.110148 -0.0932334
vt 0.110148 -0.180358
vt 0.180242 -0.180358
vt 0.180242 -0.0932334
vt 0.532099 -0.173871
vt 0.532099 -0.0997199
vt 0.566441 -0.0452412
vt 0.566441 -0.0786517
vt 0.597601 -0.0786517
vt 0.597601 -0.0452412
vt 0.254081 -0.129206
vt 0.977654 -0.131601
vt 0.25904 -0.126512
vt 0.253653 -0.123706
vt 0.26572 -0.12204
vt 0.127122 -0.0740494
vt 0.127122 -0.0585607
vt 0.26572 -0.129974
vt 0.123894 -0.180538
vt 0.123894 -0.195373
vt 0.977654 -0.117921
vt 0.224191 -0.125716
vt 0.229151 -0.128409
vt 0.947765 -0.12332
vt 0.223764 -0.131215
vt 0.235831 -0.132881
vt 0.0972331 -0.180871
vt 0.0972331 -0.19636
vt 0.235831 -0.124947
vt 0.0940051 -0.059548
vt 0.0940051 -0.0743827
vt 0.947765 -0.136999
vt 0.988053 -0.181589
vt 0.988053 -0.107478
vt 0.637248 -0.100994
vt 0.637248 -0.188073
vt 0.588222 -0.100994
vt 0.588222 -0.188073
vt 0.471372 -0.104405
vt 0.471372 -0.172144
vt 0.507381 -0.172144
vt 0.507381 -0.104405
vt 0.135125 -0.0932334
vt 0.135125 -0.180358
vt 0.176388 -0.180358
vt 0.176388 -0.0932334
vt 0.179865 -0.180358
vt 0.179865 -0.0932334
vt 0.632939 -0.188073
vt 0.632939 -0.100994
vt 0.62974 -0.100994
vt 0.62974 -0.188073
vt 0.538661 -0.100994
vt 0.538661 -0.188073
vt 0.73151 -0.104405
vt 0.73151 -0.172144
vt 0.765998 -0.172144
vt 0.765998 -0.104405
vt 0.0855364 -0.0932334
vt 0.0855364 -0.180358
vt 0.184176 -0.180358
vt 0.184176 -0.0932334
vt 0.535169 -0.173871
vt 0.535169 -0.0997199
vt 0.783601 -0.0452412
vt 0.783601 -0.0786517
vt 0.814761 -0.0786517
vt 0.814761 -0.0452412
vt 0.25848 -0.07716
vt 0.983866 -0.0362654
vt 0.264956 -0.0752223
vt 0.257922 -0.0732036
vt 0.273679 -0.0720049
vt 0.174431 -0.0547262
vt 0.174431 -0.0392372
vt 0.273679 -0.0777131
vt 0.0740955 -0.151133
vt 0.0740955 -0.165968
vt 0.983866 -0.022586
vt 0.228591 -0.177761
vt 0.235067 -0.179699
vt 0.953977 -0.218655
vt 0.228033 -0.181717
vt 0.24379 -0.182916
vt 0.144542 -0.200195
vt 0.144542 -0.215684
vt 0.24379 -0.177208
vt 0.0442064 -0.088953
vt 0.0442064 -0.103788
vt 0.953977 -0.232335
vt 0.537011 -0.173871
vt 0.537011 -0.0997199
vt 0.186118 -0.180358
vt 0.186118 -0.0932334
vt 0.136971 -0.180358
vt 0.136971 -0.0932334
vt 0.883121 -0.172144
vt 0.883121 -0.104405
vt 0.847111 -0.172144
vt 0.847111 -0.104405
vt 0.590067 -0.100994
vt 0.590067 -0.188073
vt 0.6312 -0.100994
vt 0.6312 -0.188073
vt 0.634766 -0.100994
vt 0.634766 -0.188073
vt 0.181693 -0.180358
vt 0.181693 -0.0932334
vt 0.178408 -0.180358
vt 0.178408 -0.0932334
vt 0.0873822 -0.180358
vt 0.0873822 -0.0932334
vt 0.622982 -0.172144
vt 0.622982 -0.104405
vt 0.588494 -0.172144
vt 0.588494 -0.104405
vt 0.540506 -0.100994
vt 0.540506 -0.188073
vt 0.639189 -0.100994
vt 0.639189 -0.188073
vt 0.989894 -0.107478
vt 0.989894 -0.181589
vt 0.365536 -0.0786517
vt 0.365536 -0.0452412
vt 0.334376 -0.0786517
vt 0.334376 -0.0452412
vt 0.987593 -0.2198
vt 0.262009 -0.177817
vt 0.268656 -0.18033
vt 0.261437 -0.182949
vt 0.277609 -0.184504
vt 0.178166 -0.200858
vt 0.178166 -0.216347
vt 0.0778303 -0.104451
vt 0.277609 -0.1771
vt 0.0778303 -0.0896163
vt 0.987593 -0.233479
vt 0.238767 -0.0745904
vt 0.232121 -0.0771037
vt 0.957704 -0.0351208
vt 0.231548 -0.0719723
vt 0.24772 -0.0704174
vt 0.148277 -0.054063
vt 0.148277 -0.0385743
vt 0.0479415 -0.165305
vt 0.24772 -0.0778211
vt 0.0479415 -0.15047
vt 0.957704 -0.0214417
vt 0.420203 -0.459986
vt 0.552272 -0.458907
vt 0.420834 -0.983468
vt 0.420173 -0.459271
vt 0.420804 -0.982753
vt 0.552242 -0.458193
vt 0.439458 -0.985352
vt 0.439427 -0.984637
vt 0.551792 -0.984872
vt 0.551762 -0.984157
vt 0.664027 -0.983518
vt 0.663996 -0.982803
vt 0.682281 -0.981333
vt 0.682251 -0.980619
vt 0.684342 -0.457829
vt 0.684312 -0.457114
vt 0.664404 -0.38962
vt 0.661166 -0.388837
vt 0.610476 -0.309796
vt 0.610513 -0.309082
vt 0.546938 -0.26278
vt 0.546975 -0.262066
vt 0.492427 -0.307341
vt 0.492464 -0.306627
vt 0.438504 -0.384922
vt 0.441816 -0.384275
# 102 normals
vn -0.0367148 -0.999326 0
vn 0 0 1
vn -0.966417 0.256978 0
vn 0 0 -1
vn 0.956317 -0.292333 0
vn -0.869849 0.493318 0
vn 0.852321 -0.523019 0
vn -0.749722 0.661753 0
vn 0.728618 -0.68492 0
vn -0.547547 0.836775 0
vn 0.594067 -0.804415 0
vn 0.547546 0.836776 0
vn -0.594068 -0.804415 0
vn 0.811606 0.584206 0
vn -0.833839 -0.552008 0
vn 0.873356 0.487083 0
vn -0.839157 -0.543889 0
vn 0.971944 0.235211 0
vn -0.971426 -0.237342 0
vn -0.999997 -0.00247893 0
vn 0.999992 -0.00398296 0
vn 0.0532215 -0.998583 0
vn -0.999992 0.00405784 0
vn 1 3.21021e-005 0
vn -1 0 0
vn 0 1 0
vn 0 -1 0
vn -0.999963 0.00857169 0
vn -0.827426 -0.561575 0
vn 0.864449 0.50272 0
vn 0.791603 0.611035 0
vn -0.77905 0.626962 0
vn -0.863416 0.504492 0
vn 0.825653 -0.564178 0
vn 0.999994 0.00338529 0
vn 0.00328503 -0.00264371 0.999991
vn -0.00351743 -0.00271509 0.99999
vn 0.0120377 -0.00246358 0.999924
vn -0.028598 -0.00279903 0.999587
vn 0 -0.00270333 0.999996
vn 0.00328503 -0.00264371 -0.999991
vn -0.00351743 -0.00271509 -0.99999
vn 0.0120377 -0.00246358 -0.999924
vn -0.0285981 -0.00279904 -0.999587
vn 0 -0.00270333 -0.999996
vn -0.994726 0.102571 0
vn -0.898259 -0.439467 0
vn 0.950207 0.311621 0
vn 0.920241 0.391352 0
vn -0.914176 0.405318 0
vn -0.85957 0.511018 0
vn 0.836425 -0.548082 0
vn 0.996281 -0.0861616 0
vn 0.00737327 -0.00326909 0.999967
vn -0.00529513 -0.00225186 0.999983
vn 0.0707971 -0.00798261 0.997459
vn -0.0192972 -0.0010406 0.999813
vn 0.00737328 -0.00326909 -0.999967
vn -0.00529513 -0.00225187 -0.999983
vn 0.0707971 -0.00798261 -0.997459
vn -0.0192972 -0.0010406 -0.999813
vn 0.994816 0.10169 0
vn 0.903449 -0.428695 0
vn -0.952782 0.303656 0
vn -0.880854 0.473387 0
vn 0.872398 0.488796 0
vn 0.861162 0.508331 0
vn -0.838862 -0.544344 0
vn -0.996052 -0.0887704 0
vn -0.00558937 -0.00313167 0.999979
vn 0.00432627 -0.00232502 0.999988
vn -0.0393574 -0.00560805 0.999209
vn 0.017234 -0.00117443 0.999851
vn -0.00558937 -0.00313167 -0.999979
vn 0.00432627 -0.00232502 -0.999988
vn -0.0393574 -0.00560805 -0.999209
vn 0.017234 -0.00117443 -0.999851
vn 0.110081 0.0309046 0.993442
vn 0.993241 0.116072 0
vn 0.747095 -0.664717 -1.14376e-005
vn 0.95745 0.0932739 0.273111
vn 0.0606646 -0.998158 -2.79464e-005
vn -0.0606131 -0.998161 -2.79464e-005
vn -0.74591 -0.666047 -1.14605e-005
vn -0.110013 0.0336683 0.99336
vn -0.956703 0.100444 0.273185
vn -0.992009 0.12617 0
vn -0.164467 0.0746826 0.983551
vn -0.7505 0.332943 0.570876
vn -0.743627 0.0780732 0.66402
vn -0.108793 0.0657387 0.991888
vn -0.536927 0.524404 0.66084
vn -0.735492 0.677534 4.66329e-005
vn -0.689106 0.673033 0.268626
vn 0.03759 0.999293 3.43894e-005
vn 0.108793 0.0657327 0.991889
vn 0.718821 0.641798 0.267192
vn 0.760454 0.649392 4.4696e-005
vn 0.164525 0.0725984 0.983698
vn 0.753574 0.323896 0.57203
vn 0.561256 0.501116 0.658691
vn 0.744463 0.0725249 0.663713
usemtl Texture
g Group
s off
f 1/1/1 3/3/1 2/2/1
f 1/1/1 4/4/1 3/3/1
f 5/5/2 7/7/2 6/6/2
f 8/8/2 7/7/2 5/5/2
f 9/9/3 8/11/3 5/10/3
f 10/12/3 8/11/3 9/9/3
f 11/13/4 10/15/4 9/14/4
f 12/16/4 10/15/4 11/13/4
f 6/17/5 12/19/5 11/18/5
f 7/20/5 12/19/5 6/17/5
f 13/21/2 6/6/2 14/22/2
f 5/5/2 6/6/2 13/21/2
f 15/23/6 5/10/6 13/24/6
f 9/9/6 5/10/6 15/23/6
f 16/25/4 9/14/4 15/26/4
f 11/13/4 9/14/4 16/25/4
f 14/27/7 11/18/7 16/28/7
f 6/17/7 11/18/7 14/27/7
f 17/29/2 14/22/2 18/30/2
f 13/21/2 14/22/2 17/29/2
f 19/31/8 13/24/8 17/32/8
f 15/23/8 13/24/8 19/31/8
f 20/33/4 15/26/4 19/34/4
f 16/25/4 15/26/4 20/33/4
f 18/35/9 16/28/9 20/36/9
f 14/27/9 16/28/9 18/35/9
f 21/37/2 18/30/2 22/38/2
f 17/29/2 18/30/2 21/37/2
f 23/39/10 17/41/10 21/40/10
f 19/42/10 17/41/10 23/39/10
f 24/43/4 19/34/4 23/44/4
f 20/33/4 19/34/4 24/43/4
f 22/45/11 20/47/11 24/46/11
f 18/48/11 20/47/11 22/45/11
f 25/49/2 22/38/2 26/50/2
f 21/37/2 22/38/2 25/49/2
f 27/51/12 21/40/12 25/52/12
f 23/39/12 21/40/12 27/51/12
f 28/53/4 23/44/4 27/54/4
f 24/43/4 23/44/4 28/53/4
f 26/55/13 24/46/13 28/56/13
f 22/45/13 24/46/13 26/55/13
f 29/57/2 26/50/2 30/58/2
f 25/49/2 26/50/2 29/57/2
f 31/59/14 25/61/14 29/60/14
f 27/62/14 25/61/14 31/59/14
f 32/63/4 27/54/4 31/64/4
f 28/53/4 27/54/4 32/63/4
f 30/65/15 28/67/15 32/66/15
f 26/68/15 28/67/15 30/65/15
f 33/69/2 30/58/2 34/70/2
f 29/57/2 30/58/2 33/69/2
f 35/71/16 29/60/16 33/72/16
f 31/59/16 29/60/16 35/71/16
f 36/73/4 31/64/4 35/74/4
f 32/63/4 31/64/4 36/73/4
f 34/75/17 32/66/17 36/76/17
f 30/65/17 32/66/17 34/75/17
f 37/77/2 34/70/2 38/78/2
f 33/69/2 34/70/2 37/77/2
f 39/79/18 33/72/18 37/80/18
f 35/71/18 33/72/18 39/79/18
f 40/81/4 35/74/4 39/82/4
f 36/73/4 35/74/4 40/81/4
f 38/83/19 36/76/19 40/84/19
f 34/75/19 36/76/19 38/83/19
f 3/85/2 7/7/2 8/8/2
f 3/85/2 8/8/2 2/86/2
f 2/87/20 8/11/20 10/12/20
f 2/87/20 10/12/20 1/88/20
f 1/89/4 10/15/4 12/16/4
f 1/89/4 12/16/4 4/90/4
f 4/32/21 12/19/21 7/20/21
f 4/32/21 7/20/21 3/31/21
f 41/91/22 43/93/22 42/92/22
f 41/91/22 44/94/22 43/93/22
f 43/95/2 37/77/2 38/78/2
f 43/95/2 38/78/2 42/96/2
f 42/97/23 38/83/23 40/84/23
f 42/97/23 40/84/23 41/98/23
f 41/99/4 40/81/4 39/82/4
f 41/99/4 39/82/4 44/100/4
f 44/101/24 39/79/24 37/80/24
f 44/101/24 37/80/24 43/102/24
f 45/103/2 47/105/2 46/104/2
f 47/105/2 48/106/2 46/104/2
f 46/107/24 48/109/24 49/108/24
f 48/109/24 50/110/24 49/108/24
f 49/111/4 50/113/4 51/112/4
f 50/113/4 52/114/4 51/112/4
f 51/115/25 52/117/25 45/116/25
f 52/117/25 47/118/25 45/116/25
f 51/119/26 45/121/26 49/120/26
f 45/121/26 46/122/26 49/120/26
f 47/123/27 52/125/27 48/124/27
f 52/125/27 50/126/27 48/124/27
f 53/127/28 55/129/28 54/128/28
f 53/127/28 56/130/28 55/129/28
f 56/130/29 57/131/29 55/129/29
f 56/130/29 58/132/29 57/131/29
f 58/133/26 59/135/26 57/134/26
f 58/133/26 60/136/26 59/135/26
f 60/137/30 61/139/30 59/138/30
f 60/137/30 62/140/30 61/139/30
f 62/140/31 63/141/31 61/139/31
f 62/140/31 64/142/31 63/141/31
f 64/143/32 65/145/32 63/144/32
f 64/143/32 66/146/32 65/145/32
f 66/146/33 67/147/33 65/145/33
f 66/146/33 68/148/33 67/147/33
f 68/149/26 69/151/26 67/150/26
f 68/149/26 70/152/26 69/151/26
f 70/153/34 71/155/34 69/154/34
f 70/153/34 72/156/34 71/155/34
f 72/156/35 73/157/35 71/155/35
f 72/156/35 74/158/35 73/157/35
f 74/159/27 54/161/27 73/160/27
f 74/159/27 53/162/27 54/161/27
f 66/163/36 64/165/36 74/164/36
f 74/164/37 64/165/37 62/166/37
f 74/164/38 62/166/38 56/167/38
f 56/167/2 62/166/2 60/168/2
f 56/167/2 60/168/2 58/169/2
f 72/170/2 70/172/2 68/171/2
f 72/170/2 68/171/2 66/163/2
f 72/170/39 66/163/39 74/164/39
f 74/164/40 56/167/40 53/173/40
f 65/174/41 73/176/41 63/175/41
f 73/176/42 61/177/42 63/175/42
f 73/176/43 55/178/43 61/177/43
f 55/178/4 59/179/4 61/177/4
f 55/178/4 57/180/4 59/179/4
f 71/181/4 67/183/4 69/182/4
f 71/181/4 65/174/4 67/183/4
f 71/181/44 73/176/44 65/174/44
f 73/176/45 54/184/45 55/178/45
f 75/185/46 77/187/46 76/186/46
f 75/185/46 78/188/46 77/187/46
f 78/188/47 79/189/47 77/187/47
f 78/188/47 80/190/47 79/189/47
f 80/191/26 81/193/26 79/192/26
f 80/191/26 82/194/26 81/193/26
f 82/195/48 83/197/48 81/196/48
f 82/195/48 84/198/48 83/197/48
f 84/198/49 85/199/49 83/197/49
f 84/198/49 86/200/49 85/199/49
f 86/201/50 87/203/50 85/202/50
f 86/201/50 88/204/50 87/203/50
f 88/204/51 89/205/51 87/203/51
f 88/204/51 90/206/51 89/205/51
f 90/207/26 91/209/26 89/208/26
f 90/207/26 92/210/26 91/209/26
f 92/211/52 93/213/52 91/212/52
f 92/211/52 94/214/52 93/213/52
f 94/214/53 95/215/53 93/213/53
f 94/214/53 96/216/53 95/215/53
f 96/217/27 76/219/27 95/218/27
f 96/217/27 75/220/27 76/219/27
f 88/221/54 86/223/54 96/222/54
f 96/222/55 86/223/55 84/224/55
f 96/222/56 84/224/56 78/225/56
f 78/225/2 84/224/2 82/226/2
f 78/225/2 82/226/2 80/227/2
f 94/228/2 92/230/2 90/229/2
f 94/228/2 90/229/2 88/221/2
f 94/228/57 88/221/57 96/222/57
f 96/222/40 78/225/40 75/231/40
f 87/232/58 95/234/58 85/233/58
f 95/234/59 83/235/59 85/233/59
f 95/234/60 77/236/60 83/235/60
f 77/236/4 81/237/4 83/235/4
f 77/236/4 79/238/4 81/237/4
f 93/239/4 89/241/4 91/240/4
f 93/239/4 87/232/4 89/241/4
f 93/239/61 95/234/61 87/232/61
f 95/234/45 76/242/45 77/236/45
f 97/243/62 99/245/62 98/244/62
f 99/245/62 100/246/62 98/244/62
f 99/245/63 101/247/63 100/246/63
f 101/247/63 102/248/63 100/246/63
f 101/249/26 103/251/26 102/250/26
f 103/251/26 104/252/26 102/250/26
f 103/253/64 105/255/64 104/254/64
f 105/255/64 106/256/64 104/254/64
f 105/255/65 107/257/65 106/256/65
f 107/257/65 108/258/65 106/256/65
f 107/259/66 109/261/66 108/260/66
f 109/261/66 110/262/66 108/260/66
f 109/261/67 111/263/67 110/262/67
f 111/263/67 112/264/67 110/262/67
f 111/265/26 113/267/26 112/266/26
f 113/267/26 114/268/26 112/266/26
f 113/269/68 115/271/68 114/270/68
f 115/271/68 116/272/68 114/270/68
f 115/271/69 117/273/69 116/272/69
f 117/273/69 118/274/69 116/272/69
f 117/275/27 97/277/27 118/276/27
f 97/277/27 98/278/27 118/276/27
f 118/279/70 108/281/70 110/280/70
f 106/282/71 108/281/71 118/279/71
f 100/283/72 106/282/72 118/279/72
f 104/284/2 106/282/2 100/283/2
f 102/285/2 104/284/2 100/283/2
f 112/286/2 114/288/2 116/287/2
f 110/280/2 112/286/2 116/287/2
f 118/279/73 110/280/73 116/287/73
f 98/289/40 100/283/40 118/279/40
f 107/290/74 117/292/74 109/291/74
f 107/290/75 105/293/75 117/292/75
f 105/293/76 99/294/76 117/292/76
f 105/293/4 103/295/4 99/294/4
f 103/295/4 101/296/4 99/294/4
f 113/297/4 111/299/4 115/298/4
f 111/299/4 109/291/4 115/298/4
f 109/291/77 117/292/77 115/298/77
f 99/294/45 97/300/45 117/292/45
f 119/301/4 121/303/4 120/302/4
f 122/304/78 124/306/2 123/305/2
f 119/301/79 122/304/81 121/303/80
f 122/304/81 123/305/80 121/303/80
f 121/303/4 125/307/4 120/302/4
f 123/305/2 124/306/2 126/308/2
f 121/303/80 123/305/80 126/308/82
f 121/303/80 126/308/82 125/307/82
f 125/307/4 127/309/4 120/302/4
f 126/308/2 124/306/2 128/310/2
f 125/307/82 126/308/82 127/309/27
f 126/308/82 128/310/27 127/309/27
f 127/309/4 129/311/4 120/302/4
f 128/310/2 124/306/2 130/312/2
f 127/309/27 128/310/27 130/312/83
f 127/309/27 130/312/83 129/311/83
f 129/311/4 131/313/4 120/302/4
f 130/312/2 124/306/2 132/314/2
f 129/311/83 130/312/83 131/313/84
f 130/312/83 132/314/84 131/313/84
f 131/313/4 133/315/4 120/302/4
f 132/314/2 124/306/2 134/316/85
f 131/313/84 132/314/84 134/316/86
f 131/313/84 134/316/86 133/315/87
f 133/315/4 135/317/4 120/302/4
f 134/316/85 124/306/2 136/318/88
f 133/315/87 134/316/86 135/317/89
f 134/316/90 136/318/88 135/317/89
f 135/317/4 137/319/4 120/302/4
f 136/318/88 124/306/2 138/320/91
f 135/317/89 136/318/88 138/320/92
f 135/317/89 138/320/94 137/319/93
f 137/319/4 139/321/4 120/302/4
f 138/320/91 124/306/2 140/322/2
f 137/319/93 138/320/94 139/321/95
f 138/320/94 140/322/95 139/321/95
f 139/321/4 141/323/4 120/302/4
f 140/322/2 124/306/2 142/324/96
f 139/321/95 140/322/95 142/324/97
f 139/321/95 142/324/97 141/323/98
f 141/323/4 143/325/4 120/302/4
f 142/324/96 124/306/2 144/326/99
f 141/323/98 142/324/97 143/325/100
f 142/324/101 144/326/99 143/325/100
f 143/325/4 119/301/4 120/302/4
f 144/326/99 124/306/2 122/304/78
f 143/325/100 144/326/99 122/304/102
f 143/325/100 122/304/81 119/301/79
