# Wavefront OBJ
# Created by fragMOTION 1.3.4
# http://www.fragmosoft.com

mtllib WallOrnament.mtl
# 50 vertices
v -1.45035 2.13191 0.919833
v 0.160027 2.13191 0.919833
v -1.45035 -0.0153837 0.919833
v 0.160027 -0.0153837 0.919833
v 0.160027 2.13191 -0.976462
v 0.160027 -0.0153837 -0.976462
v -1.45035 2.13191 -0.976462
v -1.45035 -0.0153837 -0.976462
v -0.99983 2.44924 0.781549
v 0.158158 2.44924 0.781549
v -1.23452 2.00633 0.882191
v 0.158158 2.00633 0.887732
v 0.158158 2.44924 -0.838178
v 0.158158 2.00633 -0.944361
v -0.99983 2.44924 -0.838178
v -1.23452 2.00633 -0.93882
v -1.50363 1.81207 0.944016
v 0.197512 1.81207 0.944016
v -1.50363 1.63835 0.944016
v 0.197512 1.63835 0.944016
v 0.197512 1.81207 -1.01988
v 0.197512 1.63835 -1.01988
v -1.50363 1.81207 -1.01988
v -1.50363 1.63835 -1.01988
v -1.50363 0.145403 0.944016
v 0.197512 0.145403 0.944016
v -1.50363 -0.0283129 0.944016
v 0.197512 -0.0283129 0.944016
v 0.197512 0.145403 -1.01988
v 0.197512 -0.0283129 -1.01988
v -1.50363 0.145403 -1.01988
v -1.50363 -0.0283129 -1.01988
v -0.815557 2.38645 -0.642556
v -0.815557 5.95891 -0.0581169
v -0.815557 2.38439 0.555848
v 0.143608 2.38645 -0.642556
v 0.143608 2.38439 0.555848
v 0.143608 5.95891 -0.0581169
v -0.815557 7.02394 0.521362
v 0.143608 7.02394 0.521362
v -0.815557 8.26637 0.326605
v 0.143608 8.26637 0.326605
v -0.815557 8.66327 -0.00509483
v 0.143608 8.66327 -0.00509483
v -0.815557 8.63496 -0.166359
v 0.143608 8.63495 -0.166359
v -0.815557 8.19738 -0.492431
v 0.143608 8.19738 -0.49243
v -0.815557 6.95852 -0.655913
v 0.143608 6.95852 -0.655913
# 112 texture vertices
vt 0.0214844 -0.283203
vt 0.466797 -0.283203
vt 0.0214844 -0.712891
vt 0.466797 -0.712891
vt 0.357299 -0.75293
vt 0.0242255 -0.75293
vt 0.424805 -0.935708
vt 0.0242255 -0.935708
vt 0.437376 -0.788256
vt 0.0681989 -0.788256
vt 0.461578 -0.918945
vt 0.0439973 -0.918945
vt 0.42011 -0.786949
vt 0.0870365 -0.786949
vt 0.42011 -0.969727
vt 0.0195313 -0.969727
vt 0.443393 -0.755859
vt 0.0719693 -0.755859
vt 0.466471 -0.887344
vt 0.0488908 -0.887344
vt 0.394531 -0.980469
vt 0.394531 -0.755565
vt 0.0280432 -0.980469
vt 0.0280432 -0.755565
vt 0.0244798 -0.75293
vt 0.0234375 -0.977833
vt 0.367076 -0.75293
vt 0.368118 -0.977833
vt 0.490274 -0.188477
vt 0.0106624 -0.188477
vt 0.490274 -0.255859
vt 0.0106624 -0.255859
vt 0.489338 -0.192208
vt 0.00972592 -0.192208
vt 0.489338 -0.250575
vt 0.00972592 -0.250576
vt 0.491211 -0.188477
vt 0.0115993 -0.188477
vt 0.491211 -0.255859
vt 0.0115993 -0.255859
vt 0.488401 -0.192208
vt 0.00878906 -0.192208
vt 0.488401 -0.250575
vt 0.00878906 -0.250576
vt 0.0478516 -0.158229
vt 0.214518 -0.158229
vt 0.0478516 -0.0205078
vt 0.214518 -0.0205078
vt 0.275391 -0.0136719
vt 0.275391 -0.155273
vt 0.467799 -0.0136719
vt 0.467799 -0.155273
vt 0.492188 -0.191197
vt 0.0181489 -0.191197
vt 0.492188 -0.257813
vt 0.0181489 -0.257813
vt 0.484781 -0.194118
vt 0.0107422 -0.194118
vt 0.484781 -0.251821
vt 0.0107422 -0.251821
vt 0.492188 -0.19043
vt 0.0181489 -0.19043
vt 0.492188 -0.257045
vt 0.0181489 -0.257045
vt 0.484781 -0.194886
vt 0.0107422 -0.194886
vt 0.484781 -0.252589
vt 0.0107422 -0.252589
vt 0.222682 -0.15317
vt 0.222682 -0.0253906
vt 0.0302734 -0.15317
vt 0.0302734 -0.0253906
vt 0.280273 -0.0253906
vt 0.280273 -0.15317
vt 0.472682 -0.0253906
vt 0.472682 -0.15317
vt 0.727728 -0.978516
vt 0.859564 -0.28125
vt 0.983478 -0.978698
vt 0.727539 -0.978516
vt 0.983289 -0.978698
vt 0.859375 -0.28125
vt 0.515625 -0.00585942
vt 0.515625 -0.0505692
vt 0.703125 -0.00585938
vt 0.703125 -0.0505691
vt 0.990423 -0.153321
vt 0.990234 -0.15332
vt 0.703125 -0.377552
vt 0.515625 -0.377551
vt 0.941595 -0.0488281
vt 0.941406 -0.0488283
vt 0.515625 -0.484487
vt 0.703125 -0.484486
vt 0.875497 -0.014792
vt 0.87531 -0.0147723
vt 0.703125 -0.515571
vt 0.515625 -0.515571
vt 0.841008 -0.014668
vt 0.84082 -0.0146484
vt 0.515625 -0.527724
vt 0.703125 -0.527724
vt 0.771673 -0.0546875
vt 0.771484 -0.0546875
vt 0.703125 -0.560164
vt 0.515625 -0.560164
vt 0.729681 -0.150391
vt 0.729492 -0.150391
vt 0.515625 -0.674062
vt 0.703125 -0.674062
vt 0.703125 -0.992188
vt 0.515625 -0.992188
# 21 normals
vn 0 0 1
vn 1 0 0
vn 0 0 -1
vn -1 0 0
vn 0 1 0
vn 0 -1 0
vn 0 0.221578 0.975143
vn -0.00193427 0.227357 0.97381
vn -0.00386847 0.233127 0.972439
vn 0 0.233129 -0.972446
vn -0.00193874 0.228332 -0.973581
vn -0.00387743 0.223529 -0.974689
vn -0.883615 0.468214 0
vn 3.51741e-007 -0.707532 -0.706681
vn -7.04985e-007 -0.705083 0.709124
vn 9.26556e-010 0.081371 0.996684
vn 3.30809e-007 0.413063 0.910702
vn 9.33855e-007 0.939232 0.343283
vn 9.26974e-007 0.851419 -0.524487
vn 4.7967e-007 0.376306 -0.926495
vn 9.29843e-008 0.0640972 -0.997944
usemtl Texture
g Group
s off
f 1/1/1 3/3/1 2/2/1
f 3/3/1 4/4/1 2/2/1
f 2/1/2 4/3/2 5/2/2
f 4/3/2 6/4/2 5/2/2
f 5/1/3 6/3/3 7/2/3
f 6/3/3 8/4/3 7/2/3
f 7/1/4 8/3/4 1/2/4
f 8/3/4 3/4/4 1/2/4
f 7/1/5 1/3/5 5/2/5
f 1/3/5 2/4/5 5/2/5
f 3/1/6 8/3/6 4/2/6
f 8/3/6 6/4/6 4/2/6
f 9/5/7 11/7/8 10/6/8
f 11/7/8 12/8/9 10/6/8
f 10/9/2 12/11/2 13/10/2
f 12/11/2 14/12/2 13/10/2
f 13/13/10 14/15/11 15/14/11
f 14/15/11 16/16/12 15/14/11
f 15/17/13 16/19/13 9/18/13
f 16/19/13 11/20/13 9/18/13
f 15/21/5 9/23/5 13/22/5
f 9/23/5 10/24/5 13/22/5
f 11/25/6 16/27/6 12/26/6
f 16/27/6 14/28/6 12/26/6
f 17/29/1 19/31/1 18/30/1
f 19/31/1 20/32/1 18/30/1
f 18/33/2 20/35/2 21/34/2
f 20/35/2 22/36/2 21/34/2
f 21/37/3 22/39/3 23/38/3
f 22/39/3 24/40/3 23/38/3
f 23/41/4 24/43/4 17/42/4
f 24/43/4 19/44/4 17/42/4
f 23/45/5 17/47/5 21/46/5
f 17/47/5 18/48/5 21/46/5
f 19/49/6 24/51/6 20/50/6
f 24/51/6 22/52/6 20/50/6
f 25/53/1 27/55/1 26/54/1
f 27/55/1 28/56/1 26/54/1
f 26/57/2 28/59/2 29/58/2
f 28/59/2 30/60/2 29/58/2
f 29/61/3 30/63/3 31/62/3
f 30/63/3 32/64/3 31/62/3
f 31/65/4 32/67/4 25/66/4
f 32/67/4 27/68/4 25/66/4
f 31/69/5 25/71/5 29/70/5
f 25/71/5 26/72/5 29/70/5
f 27/73/6 32/75/6 28/74/6
f 32/75/6 30/76/6 28/74/6
f 33/77/4 35/79/4 34/78/4
f 36/80/2 38/82/2 37/81/2
f 33/83/14 36/85/14 35/84/15
f 36/85/14 37/86/15 35/84/15
f 35/79/4 39/87/4 34/78/4
f 37/81/2 38/82/2 40/88/2
f 35/84/15 37/86/15 40/89/16
f 35/84/15 40/89/16 39/90/16
f 39/87/4 41/91/4 34/78/4
f 40/88/2 38/82/2 42/92/2
f 39/90/16 40/89/16 41/93/17
f 40/89/16 42/94/17 41/93/17
f 41/91/4 43/95/4 34/78/4
f 42/92/2 38/82/2 44/96/2
f 41/93/17 42/94/17 44/97/18
f 41/93/17 44/97/18 43/98/18
f 43/95/4 45/99/4 34/78/4
f 44/96/2 38/82/2 46/100/2
f 43/98/18 44/97/18 45/101/19
f 44/97/18 46/102/19 45/101/19
f 45/99/4 47/103/4 34/78/4
f 46/100/2 38/82/2 48/104/2
f 45/101/19 46/102/19 48/105/20
f 45/101/19 48/105/20 47/106/20
f 47/103/4 49/107/4 34/78/4
f 48/104/2 38/82/2 50/108/2
f 47/106/20 48/105/20 49/109/21
f 48/105/20 50/110/21 49/109/21
f 49/107/4 33/77/4 34/78/4
f 50/108/2 38/82/2 36/80/2
f 49/109/21 50/110/21 36/111/14
f 49/109/21 36/111/14 33/112/14
