# Wavefront OBJ
# Created by fragMOTION 1.3.4
# http://www.fragmosoft.com

mtllib ARCH.mtl
# 90 vertices
v -7.19686 2.02384 0.684682
v -5.70094 2.02384 0.684682
v -7.71565 0.0341042 1.02042
v -5.18214 0.0341042 1.02042
v -5.70094 2.02384 -0.684682
v -5.18214 0.0341042 -1.02042
v -7.19686 2.02384 -0.684682
v -7.71565 0.0341042 -1.02042
v 8.80314 2.02384 0.684682
v 10.2991 2.02384 0.684682
v 8.28435 0.0341042 1.02042
v 10.8179 0.0341042 1.02042
v 10.2991 2.02384 -0.684682
v 10.8179 0.0341042 -1.02042
v 8.80314 2.02384 -0.684682
v 8.28435 0.0341042 -1.02042
v -5.90232 1.875 0.0367304
v -6.51674 1.875 0.0367304
v -6.20953 1.875 0.593441
v -5.90232 18.375 0.0367304
v -6.20953 18.375 0.593441
v -6.51674 18.375 0.0367304
v -6.82395 1.875 0.593441
v -6.82395 18.375 0.593441
v -7.13117 1.875 0.0367303
v -7.13117 18.375 0.0367303
v -6.82395 1.875 -0.51998
v -6.82395 18.375 -0.51998
v -6.20953 1.875 -0.51998
v -6.20953 18.375 -0.51998
v 10.2227 1.875 0.0367304
v 9.60826 1.875 0.0367304
v 9.91547 1.875 0.593441
v 10.2227 18.375 0.0367304
v 9.91547 18.375 0.593441
v 9.60826 18.375 0.0367304
v 9.30105 1.875 0.593441
v 9.30105 18.375 0.593441
v 8.99383 1.875 0.0367303
v 8.99383 18.375 0.0367303
v 9.30105 1.875 -0.51998
v 9.30105 18.375 -0.51998
v 9.91547 1.875 -0.51998
v 9.91547 18.375 -0.51998
v 10.2991 18.2341 0.684682
v 8.80314 18.2341 0.684682
v 10.8179 20.2238 1.02042
v 8.28434 20.2238 1.02042
v 8.80314 18.2341 -0.684682
v 8.28434 20.2238 -1.02042
v 10.2991 18.2341 -0.684682
v 10.8179 20.2238 -1.02042
v -5.70094 18.2341 0.684682
v -7.19686 18.2341 0.684682
v -5.18214 20.2238 1.02042
v -7.71565 20.2238 1.02042
v -7.19686 18.2341 -0.684682
v -7.71565 20.2238 -1.02042
v -5.70094 18.2341 -0.684682
v -5.18214 20.2238 -1.02042
v -8.82566 21.0065 1.69597
v 11.5862 21.0065 1.69597
v -8.3864 20.1562 1.4475
v 11.1469 20.1562 1.4475
v 11.5862 21.0065 -1.69597
v 11.1469 20.1562 -1.44749
v -8.82566 21.0065 -1.69597
v -8.3864 20.1562 -1.44749
v 8.21378 25.1347 -1.42762
v 1.1706 25.1347 -1.42762
v 10.0881 22.7421 -1.42762
v 8.21378 25.1347 1.42761
v 10.0881 22.7421 1.42762
v 1.1706 25.1347 1.42761
v 10.8676 20.7419 -1.42762
v 10.8676 20.7419 1.42762
v -8.52637 20.7419 -1.42762
v -8.52637 20.7419 1.42762
v -7.59606 22.7421 -1.42762
v -7.59606 22.7421 1.42762
v -5.87258 25.1347 -1.42762
v -5.87258 25.1347 1.42762
v -3.07818 27.3685 -1.42762
v -3.07818 27.3685 1.42761
v 0.0406919 28.0992 -1.42763
v 0.0406919 28.0992 1.42761
v 2.3005 28.0992 -1.42763
v 2.3005 28.0992 1.42761
v 5.41938 27.3685 -1.42762
v 5.41938 27.3685 1.42761
# 122 texture vertices
vt 0.369497 -0.817883
vt 0.369498 -0.934476
vt 0.632575 -0.777448
vt 0.632576 -0.974912
vt 0.3369 -0.811149
vt 0.336901 -0.95811
vt 0.699147 -0.775117
vt 0.699147 -0.994141
vt 0.35455 -0.812269
vt 0.354551 -0.928862
vt 0.617628 -0.771833
vt 0.617629 -0.969297
vt 0.579994 -0.934476
vt 0.579994 -0.817883
vt 0.39894 -0.934476
vt 0.398939 -0.817883
vt 0.325834 -0.794375
vt 0.325834 -0.991839
vt 0.595667 -0.794375
vt 0.595667 -0.991839
vt 0.551278 -0.951404
vt 0.551278 -0.834811
vt 0.370223 -0.951404
vt 0.370223 -0.834811
vt 0.35455 -0.777447
vt 0.354551 -0.974912
vt 0.624383 -0.777447
vt 0.624384 -0.974912
vt 0.00195313 -0.759766
vt 0.992188 -0.759766
vt 0.992188 -0.726237
vt 0.00195313 -0.726237
vt 0.00195313 -0.692708
vt 0.992188 -0.692708
vt 0.992188 -0.65918
vt 0.00195313 -0.65918
vt 0.00195313 -0.625651
vt 0.992188 -0.625651
vt 0.992188 -0.592122
vt 0.00195313 -0.592122
vt 0.00195313 -0.558594
vt 0.992188 -0.558594
vt 0.617629 -0.92656
vt 0.617628 -0.809967
vt 0.354551 -0.966996
vt 0.35455 -0.769531
vt 0.716797 -0.955808
vt 0.716796 -0.808847
vt 0.354551 -0.99184
vt 0.35455 -0.772816
vt 0.632576 -0.932175
vt 0.632575 -0.815582
vt 0.369498 -0.97261
vt 0.369497 -0.775146
vt 0.990543 -0.5625
vt 0.00585938 -0.5625
vt 0.969352 -0.654297
vt 0.0270497 -0.654297
vt 0.969401 -0.578125
vt 0.472656 -0.578125
vt 0.933012 -0.720703
vt 0.509045 -0.720703
vt 0.963542 -0.570312
vt 0.386719 -0.570312
vt 0.921287 -0.740234
vt 0.428973 -0.740234
vt 0.00976562 -0.705078
vt 0.873047 -0.705078
vt 0.00976562 -0.564453
vt 0.873047 -0.564453
vt 0.875 -0.59375
vt 0.0292969 -0.59375
vt 0.875 -0.734375
vt 0.0292969 -0.734375
vt 0.857222 -0.257299
vt 0.499023 -0.257299
vt 0.952544 -0.417148
vt 0.140825 -0.24494
vt 0.0455026 -0.404788
vt 0.499024 -0.24494
vt 0.78633 -0.078738
vt 0.897389 -0.0787379
vt 0.78633 -0.00195326
vt 0.897389 -0.00195313
vt 0.992188 -0.550781
vt 0.00585936 -0.538421
vt 0.990234 -0.00195313
vt 0.990234 -0.078738
vt 0.00585936 -0.550781
vt 0.992188 -0.538421
vt 0.0136719 -0.0761719
vt 0.990234 -0.0761719
vt 0.0136719 -0.00195312
vt 0.0531729 -0.417148
vt 0.944874 -0.404788
vt 0.00390625 -0.0787379
vt 0.0848759 -0.00195313
vt 0.00390625 -0.00195316
vt 0.0848759 -0.0787379
vt 0.140825 -0.257299
vt 0.857222 -0.24494
vt 0.18173 -0.078738
vt 0.18173 -0.00195313
vt 0.282941 -0.108054
vt 0.715106 -0.0956938
vt 0.18173 -0.0800781
vt 0.302138 -0.00195333
vt 0.302138 -0.0800781
vt 0.441559 -0.0592354
vt 0.556488 -0.046875
vt 0.436529 -0.0800781
vt 0.436529 -0.0019533
vt 0.556488 -0.0592354
vt 0.441559 -0.046875
vt 0.533902 -0.0019533
vt 0.533902 -0.0800781
vt 0.715106 -0.108054
vt 0.282941 -0.0956938
vt 0.668293 -0.0800781
vt 0.668293 -0.00195331
vt 0.788701 -0.00195319
vt 0.788701 -0.080078
# 33 normals
vn 0 0.166381 0.986062
vn 0.967649 0.252302 0
vn 0 0.166381 -0.986062
vn -0.967649 0.252302 0
vn 0 1 0
vn 0 -1 0
vn 0.875536 0 0.483152
vn 0.508354 0 0.861148
vn -0.508355 0 0.861148
vn -1 0 -7.14817e-007
vn -0.508354 0 -0.861148
vn 0.508354 0 -0.861148
vn 0.875536 0 -0.483152
vn 0 -0.166381 0.986062
vn -0.967649 -0.252302 0
vn 0 -0.166381 -0.986062
vn 0.967648 -0.252304 0
vn 0 -0.28051 0.959851
vn 0.888436 -0.459001 0
vn 0 -0.28051 -0.959851
vn -0.888436 -0.459001 0
vn 0 -1.55861e-006 -1
vn 0 2.12792e-006 1
vn 0.710579 0.703617 9.40057e-007
vn 0.868777 0.495203 2.08209e-007
vn 0.825565 -0.564308 0
vn -0.843129 -0.537712 0
vn -0.862906 0.505364 1.96099e-007
vn -0.724604 0.689165 -6.62823e-008
vn -0.436995 0.899464 -1.60104e-006
vn -0.114813 0.993387 -2.6544e-006
vn 0.114813 0.993387 -2.6544e-006
vn 0.436995 0.899464 -1.60104e-006
usemtl Texture
g Group
s off
f 1/1/1 3/3/1 2/2/1
f 3/3/1 4/4/1 2/2/1
f 2/5/2 4/7/2 5/6/2
f 4/7/2 6/8/2 5/6/2
f 5/9/3 6/11/3 7/10/3
f 6/11/3 8/12/3 7/10/3
f 7/5/4 8/7/4 1/6/4
f 8/7/4 3/8/4 1/6/4
f 7/13/5 1/15/5 5/14/5
f 1/15/5 2/16/5 5/14/5
f 3/17/6 8/19/6 4/18/6
f 8/19/6 6/20/6 4/18/6
f 9/9/1 11/11/1 10/10/1
f 11/11/1 12/12/1 10/10/1
f 10/5/2 12/7/2 13/6/2
f 12/7/2 14/8/2 13/6/2
f 13/1/3 14/3/3 15/2/3
f 14/3/3 16/4/3 15/2/3
f 15/5/4 16/7/4 9/6/4
f 16/7/4 11/8/4 9/6/4
f 15/21/5 9/23/5 13/22/5
f 9/23/5 10/24/5 13/22/5
f 11/25/6 16/27/6 12/26/6
f 16/27/6 14/28/6 12/26/6
f 17/29/6 19/29/6 18/29/6
f 20/29/5 22/29/5 21/29/5
f 17/30/7 20/29/7 19/31/8
f 20/29/7 21/32/8 19/31/8
f 19/29/6 23/29/6 18/29/6
f 21/29/5 22/29/5 24/29/5
f 19/31/8 21/32/8 24/33/9
f 19/31/8 24/33/9 23/34/9
f 23/29/6 25/29/6 18/29/6
f 24/29/5 22/29/5 26/29/5
f 23/34/9 24/33/9 25/35/10
f 24/33/9 26/36/10 25/35/10
f 25/29/6 27/29/6 18/29/6
f 26/29/5 22/29/5 28/29/5
f 25/35/10 26/36/10 28/37/11
f 25/35/10 28/37/11 27/38/11
f 27/29/6 29/29/6 18/29/6
f 28/29/5 22/29/5 30/29/5
f 27/38/11 28/37/11 29/39/12
f 28/37/11 30/40/12 29/39/12
f 29/29/6 17/29/6 18/29/6
f 30/29/5 22/29/5 20/29/5
f 29/39/12 30/40/12 20/41/13
f 29/39/12 20/41/13 17/42/13
f 31/29/6 33/29/6 32/29/6
f 34/29/5 36/29/5 35/29/5
f 31/30/7 34/29/7 33/31/8
f 34/29/7 35/32/8 33/31/8
f 33/29/6 37/29/6 32/29/6
f 35/29/5 36/29/5 38/29/5
f 33/31/8 35/32/8 38/33/9
f 33/31/8 38/33/9 37/34/9
f 37/29/6 39/29/6 32/29/6
f 38/29/5 36/29/5 40/29/5
f 37/34/9 38/33/9 39/35/10
f 38/33/9 40/36/10 39/35/10
f 39/29/6 41/29/6 32/29/6
f 40/29/5 36/29/5 42/29/5
f 39/35/10 40/36/10 42/37/11
f 39/35/10 42/37/11 41/38/11
f 41/29/6 43/29/6 32/29/6
f 42/29/5 36/29/5 44/29/5
f 41/38/11 42/37/11 43/39/12
f 42/37/11 44/40/12 43/39/12
f 43/29/6 31/29/6 32/29/6
f 44/29/5 36/29/5 34/29/5
f 43/39/12 44/40/12 34/41/13
f 43/39/12 34/41/13 31/42/13
f 45/43/14 47/45/14 46/44/14
f 47/45/14 48/46/14 46/44/14
f 46/47/15 48/49/15 49/48/15
f 48/49/15 50/50/15 49/48/15
f 49/51/16 50/53/16 51/52/16
f 50/53/16 52/54/16 51/52/16
f 51/47/17 52/49/17 45/48/17
f 52/49/17 47/50/17 45/48/17
f 51/13/6 45/15/6 49/14/6
f 45/15/6 46/16/6 49/14/6
f 47/17/5 52/19/5 48/18/5
f 52/19/5 50/20/5 48/18/5
f 53/51/14 55/53/14 54/52/14
f 55/53/14 56/54/14 54/52/14
f 54/47/15 56/49/15 57/48/15
f 56/49/15 58/50/15 57/48/15
f 57/43/16 58/45/16 59/44/16
f 58/45/16 60/46/16 59/44/16
f 59/47/17 60/49/17 53/48/17
f 60/49/17 55/50/17 53/48/17
f 59/21/6 53/23/6 57/22/6
f 53/23/6 54/24/6 57/22/6
f 55/25/5 60/27/5 56/26/5
f 60/27/5 58/28/5 56/26/5
f 61/55/18 63/57/18 62/56/18
f 63/57/18 64/58/18 62/56/18
f 62/59/19 64/61/19 65/60/19
f 64/61/19 66/62/19 65/60/19
f 65/55/20 66/57/20 67/56/20
f 66/57/20 68/58/20 67/56/20
f 67/63/21 68/65/21 61/64/21
f 68/65/21 63/66/21 61/64/21
f 67/67/5 61/69/5 65/68/5
f 61/69/5 62/70/5 65/68/5
f 63/71/6 68/73/6 64/72/6
f 68/73/6 66/74/6 64/72/6
f 69/75/22 71/77/22 70/76/22
f 72/78/23 74/80/23 73/79/23
f 69/81/24 72/83/24 71/82/25
f 72/83/24 73/84/25 71/82/25
f 71/77/22 75/85/22 70/76/22
f 73/79/23 74/80/23 76/86/23
f 71/82/25 73/84/25 76/87/26
f 71/82/25 76/87/26 75/88/26
f 75/85/22 77/89/22 70/76/22
f 76/86/23 74/80/23 78/90/23
f 75/91/26 76/93/26 77/92/27
f 76/93/26 78/87/27 77/92/27
f 77/89/22 79/94/22 70/76/22
f 78/90/23 74/80/23 80/95/23
f 77/96/27 78/98/27 80/97/28
f 77/96/27 80/97/28 79/99/28
f 79/94/22 81/100/22 70/76/22
f 80/95/23 74/80/23 82/101/23
f 79/99/28 80/97/28 81/102/29
f 80/97/28 82/103/29 81/102/29
f 81/100/22 83/104/22 70/76/22
f 82/101/23 74/80/23 84/105/23
f 81/106/29 82/103/29 84/107/30
f 81/106/29 84/107/30 83/108/30
f 83/104/22 85/109/22 70/76/22
f 84/105/23 74/80/23 86/110/23
f 83/108/30 84/107/30 85/111/31
f 84/107/30 86/112/31 85/111/31
f 85/109/22 87/113/22 70/76/22
f 86/110/23 74/80/23 88/114/23
f 85/111/31 86/112/31 88/115/32
f 85/111/31 88/115/32 87/116/32
f 87/113/22 89/117/22 70/76/22
f 88/114/23 74/80/23 90/118/23
f 87/116/32 88/115/32 89/119/33
f 88/115/32 90/120/33 89/119/33
f 89/117/22 69/75/22 70/76/22
f 90/118/23 74/80/23 72/78/23
f 89/119/33 90/120/33 72/121/24
f 89/119/33 72/121/24 69/122/24
