# Wavefront OBJ
# Created by fragMOTION 1.3.4
# http://www.fragmosoft.com

mtllib CHAINEDPILLAR_NoTop.mtl
# 122 vertices
v -0.505099 -5.1198 2.34588
v 4.17481 -5.1198 2.34588
v -0.915143 -6.04837 2.75
v 4.58486 -6.04837 2.75
v 4.17481 -5.1198 -2.34588
v 4.58486 -6.04837 -2.75
v -0.505099 -5.1198 -2.34588
v -0.915143 -6.04837 -2.75
v -0.223423 2.07864 2.00611
v 3.83994 2.07864 2.00611
v -0.223423 -5.2215 2.00611
v 3.83994 -5.2215 2.00611
v 3.83994 2.07864 -1.98265
v 3.83994 -5.2215 -1.98265
v -0.223423 2.07864 -1.98265
v -0.223423 -5.2215 -1.98265
v 4.17481 1.8802 2.34588
v -0.5051 1.8802 2.34588
v 4.58486 2.80877 2.75
v -0.915142 2.80877 2.75
v -0.5051 1.8802 -2.34588
v -0.915142 2.80877 -2.75
v 4.17481 1.8802 -2.34588
v 4.58486 2.80877 -2.75
v 1.52239 2.79776 1.64646
v 1.52239 2.79776 2.20281
v 2.02499 2.79776 1.64646
v 2.02499 2.79776 2.20281
v 2.02499 4.13626 2.20281
v 1.52238 4.13626 2.20281
v 1.52239 5.34605 1.79622
v 2.02499 5.34605 1.79622
v 2.02499 6.18325 1.06359
v 1.52239 6.18325 1.06359
v 1.52239 6.48204 0.15
v 2.02499 6.48204 0.15
v 2.02499 6.18325 -0.763585
v 1.52239 6.18325 -0.763585
v 1.52239 5.34605 -1.49622
v 2.02499 5.34605 -1.49622
v 2.02499 4.13626 -1.90281
v 1.52238 4.13626 -1.90281
v 1.52239 2.79776 -1.90281
v 2.02499 2.79776 -1.90281
v 2.02499 2.79776 -1.34646
v 1.52239 2.79776 -1.34646
v 1.52239 3.95385 1.91531
v 2.02499 3.95385 1.9153
v 1.52238 4.83671 1.56567
v 2.02499 4.83671 1.56567
v 1.52239 5.80141 0.904261
v 2.02499 5.80141 0.904262
v 1.52239 6.2773 0.15
v 2.02499 6.27729 0.15
v 1.52239 5.80141 -0.604261
v 2.02499 5.80141 -0.604261
v 1.52238 4.83671 -1.26567
v 2.02499 4.83671 -1.26566
v 1.52239 3.95385 -1.61531
v 2.02499 3.95385 -1.6153
v 3.98546 2.74775 0.0500002
v 1.81203 2.74775 0.0500002
v 3.69427 2.74775 1.19012
v 3.98546 2.98585 0.0500002
v 3.69427 2.98585 1.19012
v 1.81203 2.98585 0.0500002
v 2.89874 2.74775 2.02475
v 2.89874 2.98585 2.02475
v 1.81203 2.74775 2.33025
v 1.81203 2.98585 2.33025
v 0.725315 2.74775 2.02475
v 0.725315 2.98585 2.02475
v -0.070215 2.74775 1.19012
v -0.070215 2.98585 1.19012
v -0.361398 2.74775 0.0500002
v -0.361398 2.98585 0.0500002
v -0.070215 2.74775 -1.09012
v -0.070215 2.98585 -1.09012
v 0.725315 2.74775 -1.92475
v 0.725315 2.98585 -1.92475
v 1.81203 2.74775 -2.23024
v 1.81203 2.98585 -2.23024
v 2.89874 2.74775 -1.92475
v 2.89874 2.98585 -1.92475
v 3.69427 2.74775 -1.09012
v 3.69427 2.98585 -1.09012
v 0.336197 2.75796 -0.100666
v -0.198234 2.75796 -0.100666
v 0.336196 2.75796 0.400667
v -0.198233 2.75796 0.400667
v -0.198233 4.12457 0.400667
v -0.198234 4.12457 -0.100667
v 0.19233 5.35978 -0.100665
v 0.19233 5.35978 0.400665
v 0.8961 6.21456 0.400668
v 0.8961 6.21457 -0.100664
v 1.77369 6.51964 -0.100666
v 1.77369 6.51964 0.400667
v 2.65128 6.21456 0.400668
v 2.65128 6.21457 -0.100664
v 3.35505 5.35978 -0.100666
v 3.35504 5.35978 0.400665
v 3.74561 4.12457 0.400667
v 3.74561 4.12457 -0.100667
v 3.74561 2.75796 -0.100667
v 3.74561 2.75796 0.400667
v 3.21118 2.75796 0.400667
v 3.21118 2.75796 -0.100666
v 0.07794 3.93834 -0.100665
v 0.0779406 3.93834 0.400666
v 0.413801 4.83974 -0.100668
v 0.413804 4.83974 0.400667
v 1.04915 5.82471 -0.100666
v 1.04915 5.8247 0.400664
v 1.77369 6.31059 -0.100665
v 1.77369 6.31058 0.400665
v 2.49823 5.82471 -0.100666
v 2.49823 5.8247 0.400665
v 3.13358 4.83974 -0.100668
v 3.13357 4.83974 0.400667
v 3.46944 3.93834 -0.100665
v 3.46943 3.93834 0.400667
# 288 texture vertices
vt 0.351208 -0.220077
vt 0.0543319 -0.220078
vt 0.377219 -0.278982
vt 0.0283203 -0.278982
vt 0.351584 -0.0986328
vt 0.0539562 -0.0986328
vt 0.377219 -0.157538
vt 0.0283206 -0.157538
vt 0.351208 -0.217151
vt 0.054332 -0.217151
vt 0.377219 -0.276056
vt 0.0283204 -0.276056
vt 0.351584 -0.101559
vt 0.0539562 -0.101559
vt 0.377219 -0.160464
vt 0.0283203 -0.160464
vt 0.0441709 -0.440643
vt 0.358824 -0.440643
vt 0.0441709 -0.125193
vt 0.358824 -0.125193
vt 0.386393 -0.100912
vt 0.0166015 -0.100912
vt 0.386393 -0.470703
vt 0.0166015 -0.470703
vt 0.324807 -0.495117
vt 0.0050024 -0.495117
vt 0.324807 -0.970196
vt 0.0050024 -0.970196
vt 0.320181 -0.495117
vt 0.00624731 -0.495117
vt 0.320181 -0.970196
vt 0.00624758 -0.970196
vt 0.329102 -0.495117
vt 0.00929658 -0.495117
vt 0.329102 -0.970196
vt 0.00929658 -0.970196
vt 0.315887 -0.495117
vt 0.00195313 -0.495117
vt 0.315887 -0.970196
vt 0.0019534 -0.970196
vt 0.110267 -0.345247
vt 0.276934 -0.345247
vt 0.110267 -0.181641
vt 0.276934 -0.181641
vt 0.275065 -0.181641
vt 0.108398 -0.181641
vt 0.275065 -0.345247
vt 0.108398 -0.345247
vt 0.054332 -0.334961
vt 0.351208 -0.334961
vt 0.0539562 -0.216443
vt 0.351584 -0.216443
vt 0.0415215 -0.465663
vt 0.3508 -0.465663
vt 0.0144234 -0.404297
vt 0.377898 -0.404297
vt 0.0433767 -0.379883
vt 0.354234 -0.379883
vt 0.0166016 -0.318359
vt 0.381009 -0.318359
vt 0.0441709 -0.443532
vt 0.358824 -0.443532
vt 0.0441709 -0.128082
vt 0.358824 -0.128082
vt 0.386393 -0.0980224
vt 0.0166018 -0.0980224
vt 0.386393 -0.467814
vt 0.0166018 -0.467814
vt 0.804942 -0.673771
vt 0.804942 -0.666291
vt 0.798391 -0.673771
vt 0.798391 -0.666291
vt 0.796103 -0.854217
vt 0.789553 -0.836223
vt 0.789553 -0.854217
vt 0.796103 -0.836223
vt 0.796103 -0.819959
vt 0.789553 -0.819959
vt 0.789553 -0.808704
vt 0.796103 -0.808704
vt 0.789603 -0.693087
vt 0.789603 -0.705275
vt 0.796103 -0.693087
vt 0.796103 -0.705275
vt 0.796103 -0.717462
vt 0.789603 -0.717462
vt 0.784447 -0.803243
vt 0.784447 -0.814412
vt 0.790947 -0.803243
vt 0.790947 -0.814412
vt 0.790947 -0.830551
vt 0.784447 -0.830551
vt 0.784447 -0.848407
vt 0.790947 -0.848407
vt 0.804942 -0.721486
vt 0.798391 -0.714006
vt 0.798391 -0.721486
vt 0.804942 -0.714006
vt 0.784447 -0.832984
vt 0.790947 -0.832984
vt 0.784447 -0.821207
vt 0.790947 -0.821207
vt 0.784447 -0.808337
vt 0.790947 -0.808337
vt 0.804942 -0.693888
vt 0.798391 -0.683748
vt 0.798391 -0.693888
vt 0.804942 -0.683748
vt 0.804942 -0.704028
vt 0.798391 -0.704028
vt 0.796103 -0.826806
vt 0.789553 -0.813837
vt 0.789553 -0.826806
vt 0.796103 -0.813837
vt 0.796103 -0.838675
vt 0.789553 -0.838675
vt 0.765917 -0.853037
vt 0.769664 -0.837495
vt 0.765917 -0.835043
vt 0.773168 -0.853037
vt 0.774221 -0.825626
vt 0.771216 -0.818779
vt 0.782841 -0.812657
vt 0.780764 -0.807524
vt 0.792671 -0.806259
vt 0.792671 -0.803507
vt 0.802501 -0.812657
vt 0.804578 -0.807524
vt 0.811121 -0.825626
vt 0.814126 -0.818779
vt 0.815678 -0.837495
vt 0.819425 -0.835043
vt 0.812174 -0.853037
vt 0.819425 -0.853037
vt 0.807749 -0.835926
vt 0.811467 -0.851349
vt 0.811467 -0.833493
vt 0.804272 -0.851349
vt 0.803227 -0.824149
vt 0.806208 -0.817354
vt 0.794673 -0.811279
vt 0.796733 -0.806186
vt 0.784918 -0.804931
vt 0.784918 -0.802199
vt 0.775164 -0.811279
vt 0.773103 -0.806186
vt 0.76661 -0.824149
vt 0.763628 -0.817354
vt 0.762088 -0.835926
vt 0.75837 -0.833493
vt 0.765565 -0.851349
vt 0.75837 -0.851349
vt 0.645508 -0.287819
vt 0.793961 -0.287819
vt 0.665397 -0.210316
vt 0.945313 -0.291282
vt 0.925424 -0.213779
vt 0.79686 -0.291282
vt 0.258789 -0.00976562
vt 0.175835 -0.00976562
vt 0.258789 -0.0839844
vt 0.175835 -0.0839844
vt 0.719734 -0.153579
vt 0.871086 -0.157042
vt 0.0961579 -0.0839844
vt 0.0961579 -0.00976562
vt 0.793961 -0.132812
vt 0.79686 -0.136275
vt 0.0195312 -0.00976562
vt 0.0195312 -0.0839844
vt 0.868187 -0.153579
vt 0.722634 -0.157042
vt 0.976563 -0.00976562
vt 0.899936 -0.0839844
vt 0.976563 -0.0839844
vt 0.899936 -0.00976562
vt 0.922524 -0.210316
vt 0.668296 -0.213779
vt 0.820259 -0.00976562
vt 0.820259 -0.0839844
vt 0.942413 -0.287819
vt 0.648407 -0.291282
vt 0.737305 -0.0839844
vt 0.737305 -0.00976562
vt 0.922524 -0.365323
vt 0.668296 -0.368786
vt 0.65435 -0.00976562
vt 0.65435 -0.0839844
vt 0.868187 -0.422059
vt 0.722634 -0.425522
vt 0.574674 -0.0839844
vt 0.574674 -0.00976562
vt 0.793961 -0.442826
vt 0.79686 -0.446289
vt 0.498047 -0.00976562
vt 0.498047 -0.0839844
vt 0.719734 -0.422059
vt 0.871086 -0.425522
vt 0.42142 -0.0839844
vt 0.42142 -0.00976562
vt 0.665397 -0.365323
vt 0.925424 -0.368786
vt 0.341743 -0.00976562
vt 0.341743 -0.0839844
vt 0.820401 -0.697258
vt 0.827366 -0.697258
vt 0.820401 -0.690519
vt 0.827366 -0.690519
vt 0.795938 -0.853572
vt 0.789404 -0.8352
vt 0.789404 -0.853572
vt 0.795938 -0.8352
vt 0.795938 -0.818594
vt 0.789404 -0.818594
vt 0.789404 -0.807103
vt 0.795938 -0.807103
vt 0.781503 -0.708618
vt 0.792853 -0.708618
vt 0.781503 -0.70193
vt 0.792853 -0.70193
vt 0.804203 -0.70193
vt 0.804203 -0.708618
vt 0.781677 -0.805768
vt 0.781677 -0.817171
vt 0.78816 -0.805768
vt 0.78816 -0.817171
vt 0.78816 -0.833649
vt 0.781676 -0.833649
vt 0.781676 -0.85188
vt 0.78816 -0.85188
vt 0.775967 -0.697258
vt 0.782932 -0.690519
vt 0.775967 -0.690519
vt 0.782932 -0.697258
vt 0.781677 -0.836133
vt 0.78816 -0.836133
vt 0.781676 -0.824108
vt 0.78816 -0.824108
vt 0.781676 -0.810969
vt 0.78816 -0.810969
vt 0.801666 -0.697258
vt 0.811109 -0.690519
vt 0.801666 -0.690519
vt 0.811109 -0.697258
vt 0.792224 -0.697258
vt 0.792224 -0.690519
vt 0.795938 -0.825585
vt 0.789404 -0.812344
vt 0.789404 -0.825585
vt 0.795938 -0.812344
vt 0.795938 -0.837703
vt 0.789404 -0.837703
vt 0.762195 -0.848938
vt 0.765766 -0.833191
vt 0.762195 -0.830707
vt 0.769107 -0.848938
vt 0.77011 -0.821166
vt 0.767246 -0.814229
vt 0.778327 -0.808026
vt 0.776348 -0.802826
vt 0.787697 -0.801545
vt 0.787697 -0.798756
vt 0.797068 -0.808026
vt 0.799047 -0.802826
vt 0.805284 -0.821166
vt 0.808148 -0.814229
vt 0.809628 -0.833191
vt 0.8132 -0.830707
vt 0.806288 -0.848938
vt 0.8132 -0.848938
vt 0.814929 -0.838883
vt 0.818528 -0.854752
vt 0.818528 -0.83638
vt 0.811563 -0.854752
vt 0.810551 -0.826765
vt 0.813438 -0.819774
vt 0.802271 -0.813524
vt 0.804266 -0.808283
vt 0.792828 -0.806992
vt 0.792828 -0.804181
vt 0.783385 -0.813524
vt 0.781391 -0.808283
vt 0.775105 -0.826765
vt 0.772218 -0.819774
vt 0.770727 -0.838883
vt 0.767128 -0.83638
vt 0.774093 -0.854752
vt 0.767128 -0.854752
# 109 normals
vn 0 0.399053 0.916928
vn 0.914777 0.403959 0
vn 0.545913 0.837842 0
vn 0.837842 -0.545912 0
vn 0 0.399053 -0.916928
vn -0.545915 0.837841 0
vn -0.914779 0.403954 0
vn -0.837841 -0.545915 0
vn 0 1 0
vn 0 -1 0
vn 0 0 1
vn 1 0 0
vn 0.707107 0.707107 0
vn 0.707107 -0.707107 0
vn 0 0 -1
vn -0.707107 0.707107 0
vn -1 0 0
vn -0.707107 -0.707107 0
vn 0 -0.399053 0.916928
vn -0.91478 -0.403953 0
vn -0.545915 -0.83784 0
vn -0.83784 0.545915 0
vn 0 -0.399053 -0.916928
vn 0.545913 -0.837842 0
vn 0.914777 -0.403959 0
vn 0.837842 0.545913 0
vn -0.626595 -0.484667 -0.610309
vn -0.577352 -0.577355 0.577344
vn 0.372983 -0.577014 -0.726593
vn 0.816497 -0.408248 0.408248
vn 0.605065 0.128505 0.785737
vn -0.83541 0.088709 0.542421
vn -0.607515 0.395749 0.6887
vn 0.837015 0.272621 0.474431
vn 0.613925 0.658539 0.435227
vn -0.841168 0.451148 0.298163
vn -0.61946 0.785028 -6.39993e-007
vn 0.844702 0.535237 -4.36351e-007
vn 0.613925 0.658539 -0.435227
vn -0.841166 0.451152 -0.298164
vn -0.607517 0.395747 -0.6887
vn 0.837015 0.272621 -0.47443
vn 0.605065 0.128505 -0.785737
vn -0.835415 0.0887132 -0.542414
vn -0.333333 -0.666668 -0.666666
vn 0.57735 -0.57735 -0.57735
vn 0.702989 -0.623375 0.342359
vn -0.702986 -0.192262 0.684723
vn -0.721504 0.0203873 -0.69211
vn 0.721501 -0.122634 -0.681467
vn -0.709079 -0.307707 -0.634447
vn 0.709077 -0.354335 -0.609637
vn -0.713613 -0.47019 -0.519305
vn 0.71361 -0.536862 -0.450045
vn -0.756602 -0.639879 -0.134571
vn 0.756594 -0.639887 0.134575
vn -0.713613 -0.536858 0.450044
vn 0.71361 -0.470194 0.519306
vn -0.709086 -0.354331 0.609628
vn 0.70907 -0.307713 0.634454
vn -0.721508 -0.12263 0.68146
vn 0.721501 0.0203944 0.692112
vn 0.685115 0.707107 0.17498
vn 0.968898 0 0.24746
vn 0.874817 0 0.484453
vn 0.515606 0 0.856826
vn -0.515605 0 0.856826
vn -0.874819 0 0.48445
vn -0.874819 0 -0.48445
vn -0.515602 0 -0.856828
vn 0.515602 0 -0.856828
vn 0.874817 0 -0.484453
vn 0.968898 0 -0.24746
vn 0.609069 -0.490217 -0.623476
vn -0.577349 -0.577351 -0.57735
vn 0.723618 -0.582413 0.370368
vn -0.408247 -0.408248 0.816497
vn -0.787271 0.1215 0.604518
vn -0.543745 0.0839161 -0.835045
vn -0.698317 0.379252 -0.607059
vn -0.481244 0.261361 0.836716
vn -0.450808 0.647381 0.614548
vn -0.308677 0.443275 -0.841561
vn -3.33582e-007 0.78315 -0.621833
vn -1.51314e-006 0.532852 0.846208
vn 0.450809 0.647381 0.614548
vn 0.308678 0.443277 -0.84156
vn 0.69832 0.379252 -0.607056
vn 0.481243 0.26136 0.836717
vn 0.78727 0.1215 0.60452
vn 0.543742 0.0839164 -0.835046
vn 0.666666 -0.666667 -0.333333
vn 0.57735 -0.57735 0.57735
vn -0.342294 -0.625892 0.700781
vn -0.684587 -0.200608 -0.700783
vn 0.693765 0.0187944 -0.719957
vn 0.684207 -0.11629 0.719956
vn 0.641468 -0.293114 -0.708945
vn 0.618614 -0.338703 0.708941
vn 0.532272 -0.45544 -0.713625
vn 0.464872 -0.524072 0.713612
vn 0.141382 -0.632491 -0.761555
vn -0.141385 -0.632507 0.761542
vn -0.464864 -0.524062 -0.713625
vn -0.532282 -0.45545 0.713611
vn -0.618606 -0.338697 -0.708951
vn -0.641476 -0.293117 0.708937
vn -0.6842 -0.116286 -0.719964
vn -0.693767 0.0187962 0.719954
usemtl Texture
g Group
s off
f 1/1/1 3/3/1 2/2/1
f 3/3/1 4/4/1 2/2/1
f 2/5/2 4/7/2 5/6/3
f 4/7/2 6/8/4 5/6/3
f 5/9/5 6/11/5 7/10/5
f 6/11/5 8/12/5 7/10/5
f 7/13/6 8/15/8 1/14/7
f 8/15/8 3/16/7 1/14/7
f 7/17/6 1/19/9 5/18/3
f 1/19/9 2/20/9 5/18/3
f 3/21/10 8/23/8 4/22/10
f 8/23/8 6/24/4 4/22/10
f 9/25/11 11/27/11 10/26/11
f 11/27/11 12/28/11 10/26/11
f 10/29/12 12/31/12 13/30/13
f 12/31/12 14/32/14 13/30/13
f 13/33/15 14/35/15 15/34/15
f 14/35/15 16/36/15 15/34/15
f 15/37/16 16/39/18 9/38/17
f 16/39/18 11/40/17 9/38/17
f 15/41/16 9/43/9 13/42/13
f 9/43/9 10/44/9 13/42/13
f 11/45/10 16/47/18 12/46/10
f 16/47/18 14/48/14 12/46/10
f 17/49/19 19/12/19 18/50/19
f 19/12/19 20/11/19 18/50/19
f 18/51/20 20/8/20 21/52/21
f 20/8/20 22/7/22 21/52/21
f 21/53/23 22/55/23 23/54/23
f 22/55/23 24/56/23 23/54/23
f 23/57/24 24/59/26 17/58/25
f 24/59/26 19/60/25 17/58/25
f 23/61/24 17/63/10 21/62/21
f 17/63/10 18/64/10 21/62/21
f 19/65/9 24/67/26 20/66/9
f 24/67/26 22/68/22 20/66/9
f 25/69/27 27/71/29 26/70/28
f 27/71/29 28/72/30 26/70/28
f 26/73/28 28/75/30 29/74/31
f 26/73/28 29/74/31 30/76/32
f 30/76/32 29/74/31 31/77/33
f 29/74/31 32/78/34 31/77/33
f 31/77/33 32/78/34 33/79/35
f 31/77/33 33/79/35 34/80/36
f 34/81/36 33/83/35 35/82/37
f 33/83/35 36/84/38 35/82/37
f 35/82/37 36/84/38 37/85/39
f 35/82/37 37/85/39 38/86/40
f 38/87/40 37/89/39 39/88/41
f 37/89/39 40/90/42 39/88/41
f 39/88/41 40/90/42 41/91/43
f 39/88/41 41/91/43 42/92/44
f 42/92/44 41/91/43 43/93/45
f 41/91/43 44/94/46 43/93/45
f 43/95/45 44/97/46 45/96/47
f 43/95/45 45/96/47 46/98/48
f 47/99/49 48/100/50 27/94/29
f 47/99/49 27/94/29 25/93/27
f 49/101/51 50/102/52 48/100/50
f 49/101/51 48/100/50 47/99/49
f 51/103/53 52/104/54 50/102/52
f 51/103/53 50/102/52 49/101/51
f 53/105/55 54/107/56 52/106/54
f 53/105/55 52/106/54 51/108/53
f 55/109/57 56/110/58 54/107/56
f 55/109/57 54/107/56 53/105/55
f 57/111/59 58/113/60 56/112/58
f 57/111/59 56/112/58 55/114/57
f 59/115/61 60/116/62 58/113/60
f 59/115/61 58/113/60 57/111/59
f 46/73/48 45/75/47 60/116/62
f 46/73/48 60/116/62 59/115/61
f 26/117/28 30/119/32 47/118/49
f 25/120/27 26/117/28 47/118/49
f 30/119/32 31/122/33 49/121/51
f 47/118/49 30/119/32 49/121/51
f 31/122/33 34/124/36 51/123/53
f 49/121/51 31/122/33 51/123/53
f 34/124/36 35/126/37 53/125/55
f 51/123/53 34/124/36 53/125/55
f 35/126/37 38/128/40 55/127/57
f 53/125/55 35/126/37 55/127/57
f 38/128/40 39/130/41 57/129/59
f 55/127/57 38/128/40 57/129/59
f 39/130/41 42/132/44 59/131/61
f 57/129/59 39/130/41 59/131/61
f 42/132/44 43/134/45 46/133/48
f 59/131/61 42/132/44 46/133/48
f 48/135/50 29/137/31 28/136/30
f 48/135/50 28/136/30 27/138/29
f 50/139/52 32/140/34 29/137/31
f 50/139/52 29/137/31 48/135/50
f 52/141/54 33/142/35 32/140/34
f 52/141/54 32/140/34 50/139/52
f 54/143/56 36/144/38 33/142/35
f 54/143/56 33/142/35 52/141/54
f 56/145/58 37/146/39 36/144/38
f 56/145/58 36/144/38 54/143/56
f 58/147/60 40/148/42 37/146/39
f 58/147/60 37/146/39 56/145/58
f 60/149/62 41/150/43 40/148/42
f 60/149/62 40/148/42 58/147/60
f 45/151/47 44/152/46 41/150/43
f 45/151/47 41/150/43 60/149/62
f 61/153/10 63/155/10 62/154/10
f 64/156/63 66/158/9 65/157/9
f 61/159/64 64/161/63 63/160/65
f 64/161/63 65/162/65 63/160/65
f 63/155/10 67/163/10 62/154/10
f 65/157/9 66/158/9 68/164/9
f 63/160/65 65/162/65 68/165/66
f 63/160/65 68/165/66 67/166/66
f 67/163/10 69/167/10 62/154/10
f 68/164/9 66/158/9 70/168/9
f 67/166/66 68/165/66 69/169/11
f 68/165/66 70/170/11 69/169/11
f 69/167/10 71/171/10 62/154/10
f 70/168/9 66/158/9 72/172/9
f 69/173/11 70/175/11 72/174/67
f 69/173/11 72/174/67 71/176/67
f 71/171/10 73/177/10 62/154/10
f 72/172/9 66/158/9 74/178/9
f 71/176/67 72/174/67 73/179/68
f 72/174/67 74/180/68 73/179/68
f 73/177/10 75/181/10 62/154/10
f 74/178/9 66/158/9 76/182/9
f 73/179/68 74/180/68 76/183/17
f 73/179/68 76/183/17 75/184/17
f 75/181/10 77/185/10 62/154/10
f 76/182/9 66/158/9 78/186/9
f 75/184/17 76/183/17 77/187/69
f 76/183/17 78/188/69 77/187/69
f 77/185/10 79/189/10 62/154/10
f 78/186/9 66/158/9 80/190/9
f 77/187/69 78/188/69 80/191/70
f 77/187/69 80/191/70 79/192/70
f 79/189/10 81/193/10 62/154/10
f 80/190/9 66/158/9 82/194/9
f 79/192/70 80/191/70 81/195/15
f 80/191/70 82/196/15 81/195/15
f 81/193/10 83/197/10 62/154/10
f 82/194/9 66/158/9 84/198/9
f 81/195/15 82/196/15 84/199/71
f 81/195/15 84/199/71 83/200/71
f 83/197/10 85/201/10 62/154/10
f 84/198/9 66/158/9 86/202/9
f 83/200/71 84/199/71 85/203/72
f 84/199/71 86/204/72 85/203/72
f 85/201/10 61/153/10 62/154/10
f 86/202/9 66/158/9 64/156/63
f 85/203/72 86/204/72 64/161/73
f 85/203/72 64/161/73 61/159/73
f 87/205/74 89/207/76 88/206/75
f 89/207/76 90/208/77 88/206/75
f 88/209/75 90/211/77 91/210/78
f 88/209/75 91/210/78 92/212/79
f 92/212/79 91/210/78 93/213/80
f 91/210/78 94/214/81 93/213/80
f 93/213/80 94/214/81 95/215/82
f 93/213/80 95/215/82 96/216/83
f 96/217/83 95/219/82 97/218/84
f 95/219/82 98/220/85 97/218/84
f 97/218/84 98/220/85 99/221/86
f 97/218/84 99/221/86 100/222/87
f 100/223/87 99/225/86 101/224/88
f 99/225/86 102/226/89 101/224/88
f 101/224/88 102/226/89 103/227/90
f 101/224/88 103/227/90 104/228/91
f 104/228/91 103/227/90 105/229/92
f 103/227/90 106/230/93 105/229/92
f 105/231/92 106/233/93 107/232/94
f 105/231/92 107/232/94 108/234/95
f 109/235/96 110/236/97 89/230/76
f 109/235/96 89/230/76 87/229/74
f 111/237/98 112/238/99 110/236/97
f 111/237/98 110/236/97 109/235/96
f 113/239/100 114/240/101 112/238/99
f 113/239/100 112/238/99 111/237/98
f 115/241/102 116/243/103 114/242/101
f 115/241/102 114/242/101 113/244/100
f 117/245/104 118/246/105 116/243/103
f 117/245/104 116/243/103 115/241/102
f 119/247/106 120/249/107 118/248/105
f 119/247/106 118/248/105 117/250/104
f 121/251/108 122/252/109 120/249/107
f 121/251/108 120/249/107 119/247/106
f 108/209/95 107/211/94 122/252/109
f 108/209/95 122/252/109 121/251/108
f 88/253/75 92/255/79 109/254/96
f 87/256/74 88/253/75 109/254/96
f 92/255/79 93/258/80 111/257/98
f 109/254/96 92/255/79 111/257/98
f 93/258/80 96/260/83 113/259/100
f 111/257/98 93/258/80 113/259/100
f 96/260/83 97/262/84 115/261/102
f 113/259/100 96/260/83 115/261/102
f 97/262/84 100/264/87 117/263/104
f 115/261/102 97/262/84 117/263/104
f 100/264/87 101/266/88 119/265/106
f 117/263/104 100/264/87 119/265/106
f 101/266/88 104/268/91 121/267/108
f 119/265/106 101/266/88 121/267/108
f 104/268/91 105/270/92 108/269/95
f 121/267/108 104/268/91 108/269/95
f 110/271/97 91/273/78 90/272/77
f 110/271/97 90/272/77 89/274/76
f 112/275/99 94/276/81 91/273/78
f 112/275/99 91/273/78 110/271/97
f 114/277/101 95/278/82 94/276/81
f 114/277/101 94/276/81 112/275/99
f 116/279/103 98/280/85 95/278/82
f 116/279/103 95/278/82 114/277/101
f 118/281/105 99/282/86 98/280/85
f 118/281/105 98/280/85 116/279/103
f 120/283/107 102/284/89 99/282/86
f 120/283/107 99/282/86 118/281/105
f 122/285/109 103/286/90 102/284/89
f 122/285/109 102/284/89 120/283/107
f 107/287/94 106/288/93 103/286/90
f 107/287/94 103/286/90 122/285/109
