# Wavefront OBJ
# Created by fragMOTION 1.3.4
# http://www.fragmosoft.com

mtllib GOTHICWINDOW_SIMPLE4.mtl
# 74 vertices
v 25.367 40.5025 -0.279669
v 25.3566 -9.27654 -0.279669
v 25.367 40.5025 0.288649
v 25.3566 -9.27654 0.288649
v 24.0423 -9.25813 0.288649
v 24.0423 -9.25813 -0.279669
v 16.0412 -9.23737 -0.27967
v 16.0412 -9.23737 0.288648
v 8.03947 -9.25813 0.288649
v 8.03947 -9.25813 -0.279669
v 6.72578 -9.27654 -0.279669
v 6.72578 -9.27654 0.288649
v 6.7155 40.5025 0.288649
v 6.7155 40.5025 -0.279669
v 7.97941 45.8666 -0.279667
v 7.97941 45.8666 0.288648
v 10.6629 49.8034 0.288648
v 10.6629 49.8034 -0.279668
v 16.0412 54.3787 -0.279666
v 16.0412 54.3787 0.288648
v 21.4194 49.8034 0.288648
v 21.4194 49.8034 -0.279668
v 24.1031 45.8666 -0.279667
v 24.1031 45.8666 0.288648
v 24.914 -8.90537 -0.279669
v 24.9239 40.5025 0.288647
v 24.914 -8.90533 0.288648
v 24.9239 40.5025 -0.279669
v 23.6622 -8.91188 -0.279668
v 23.6621 -8.91184 0.288647
v 16.0412 -8.90402 -0.279669
v 16.0412 -8.90404 0.288648
v 8.41961 -8.91188 -0.279668
v 8.41966 -8.91184 0.288647
v 7.16833 -8.90537 -0.279669
v 7.16837 -8.90533 0.288648
v 7.15864 40.5025 -0.279669
v 7.15861 40.5025 0.288647
v 8.36242 45.5515 -0.279669
v 8.36245 45.5515 0.288647
v 10.9184 49.2393 -0.279667
v 10.9185 49.2392 0.288647
v 16.0412 53.7271 -0.279669
v 16.0412 53.7271 0.288647
v 21.1639 49.2393 -0.279667
v 21.1639 49.2392 0.288647
v 23.7201 45.5515 -0.279669
v 23.7201 45.5515 0.288647
v 25.0702 40.5025 -0.0637133
v 16.0428 40.5025 -0.0637133
v 25.0602 -9.02653 -0.0637129
v 25.0702 40.5025 0.0471361
v 25.0602 -9.02653 0.0471358
v 16.0428 40.5025 0.0471361
v 23.7889 -9.12522 -0.0637126
v 23.7889 -9.12522 0.0471357
v 16.0429 -9.14643 -0.0637128
v 16.0429 -9.14644 0.0471362
v 8.29811 -9.12522 -0.0637126
v 8.29811 -9.12522 0.0471357
v 7.0256 -9.02653 -0.0637129
v 7.0256 -9.02653 0.0471358
v 7.01543 40.5025 -0.0637133
v 7.01543 40.5025 0.0471361
v 8.23889 45.6687 -0.0637126
v 8.23889 45.6687 0.0471359
v 10.8368 49.4491 -0.0637122
v 10.8368 49.4491 0.047136
v 16.0429 53.9695 -0.0637137
v 16.0429 53.9695 0.047134
v 21.2491 49.4491 -0.0637122
v 21.2491 49.4491 0.047136
v 23.8466 45.6687 -0.0637126
v 23.8466 45.6687 0.0471359
# 160 texture vertices
vt 0.390625 -0.0892274
vt 0.390631 -0.368164
vt 0.445765 -0.0892274
vt 0.445765 -0.368164
vt 0.0224609 -0.462891
vt 0.0499479 -0.453922
vt 0.0224609 -0.453922
vt 0.0499479 -0.462891
vt 0.217285 -0.462891
vt 0.217285 -0.453922
vt 0.384635 -0.453922
vt 0.384635 -0.462891
vt 0.412109 -0.462891
vt 0.412109 -0.453922
vt 0.445765 -0.699219
vt 0.390625 -0.420282
vt 0.390631 -0.699219
vt 0.445765 -0.420282
vt 0.445765 -0.390224
vt 0.390625 -0.390224
vt 0.0991928 -0.0221109
vt 0.217285 -0.0221109
vt 0.0991928 -0.0126953
vt 0.217285 -0.0126953
vt 0.335378 -0.0126953
vt 0.335378 -0.0221109
vt 0.390625 -0.0371094
vt 0.390625 -0.0591694
vt 0.445765 -0.0371094
vt 0.445765 -0.0591694
vt 0.445765 -0.697139
vt 0.390631 -0.697139
vt 0.384622 -0.0221109
vt 0.412109 -0.0126953
vt 0.384621 -0.0126953
vt 0.412109 -0.022111
vt 0.0499356 -0.0221109
vt 0.0499367 -0.0126953
vt 0.0224609 -0.022111
vt 0.0224615 -0.0126953
vt 0.445765 -0.366084
vt 0.390631 -0.366084
vt 0.390625 -0.0609349
vt 0.445765 -0.0609351
vt 0.390625 -0.0402706
vt 0.445765 -0.0402709
vt 0.324422 -0.453922
vt 0.324424 -0.462891
vt 0.110147 -0.462891
vt 0.110148 -0.453922
vt 0.445765 -0.39199
vt 0.390625 -0.371326
vt 0.390625 -0.39199
vt 0.445765 -0.371325
vt 0.0501971 -0.440165
vt 0.0410156 -0.274924
vt 0.0412284 -0.441406
vt 0.0499954 -0.274924
vt 0.0755631 -0.440187
vt 0.067859 -0.441345
vt 0.229988 -0.44016
vt 0.229988 -0.441275
vt 0.384424 -0.440187
vt 0.392128 -0.441345
vt 0.409779 -0.440165
vt 0.418747 -0.441406
vt 0.409977 -0.274924
vt 0.418955 -0.274924
vt 0.385584 -0.258038
vt 0.393345 -0.256984
vt 0.33379 -0.245704
vt 0.338969 -0.243817
vt 0.229988 -0.230695
vt 0.229988 -0.228516
vt 0.126186 -0.245704
vt 0.121007 -0.243817
vt 0.0743896 -0.258038
vt 0.0666276 -0.256984
vt 0.418955 -0.062033
vt 0.409776 -0.227274
vt 0.418744 -0.228516
vt 0.409977 -0.062033
vt 0.384409 -0.227296
vt 0.392112 -0.228454
vt 0.229984 -0.22727
vt 0.229984 -0.228385
vt 0.0755471 -0.227296
vt 0.0678442 -0.228454
vt 0.0501922 -0.227274
vt 0.0412248 -0.228516
vt 0.0499954 -0.062033
vt 0.0410156 -0.062033
vt 0.0743871 -0.0451468
vt 0.0666264 -0.044093
vt 0.126181 -0.0328133
vt 0.121003 -0.0309266
vt 0.229984 -0.017804
vt 0.229984 -0.015625
vt 0.333787 -0.0328133
vt 0.338964 -0.0309266
vt 0.385583 -0.0451468
vt 0.393345 -0.044093
vt 1 -0.211277
vt 0.867697 -0.211277
vt 0.999855 -0.989327
vt 0.734375 -0.209601
vt 0.73452 -0.987652
vt 0.866679 -0.209601
vt 0.411578 -0.0892274
vt 0.411578 -0.366763
vt 0.422336 -0.0892274
vt 0.422336 -0.366763
vt 0.981222 -0.990878
vt 0.753153 -0.989202
vt 0.0286581 -0.459483
vt 0.0552476 -0.457734
vt 0.0286581 -0.457734
vt 0.0552476 -0.459483
vt 0.867699 -0.991211
vt 0.866676 -0.989535
vt 0.217248 -0.459483
vt 0.217248 -0.457734
vt 0.754192 -0.990878
vt 0.980183 -0.989202
vt 0.379225 -0.457734
vt 0.379225 -0.459483
vt 0.735543 -0.989327
vt 0.998833 -0.987652
vt 0.405839 -0.459483
vt 0.405839 -0.457734
vt 0.735393 -0.211277
vt 0.998982 -0.209601
vt 0.424812 -0.697818
vt 0.41406 -0.420282
vt 0.41406 -0.697818
vt 0.424812 -0.420282
vt 0.753324 -0.13012
vt 0.981051 -0.128444
vt 0.424812 -0.391333
vt 0.41406 -0.391333
vt 0.791398 -0.0707337
vt 0.942977 -0.0690581
vt 0.41406 -0.370149
vt 0.424812 -0.370149
vt 0.867699 0.000277461
vt 0.866676 0.00195311
vt 0.10301 -0.0185331
vt 0.217324 -0.0185331
vt 0.10301 -0.0166966
vt 0.217324 -0.0166966
vt 0.943999 -0.0707337
vt 0.790376 -0.0690581
vt 0.331637 -0.0166966
vt 0.331637 -0.0185331
vt 0.982069 -0.13012
vt 0.752307 -0.128444
vt 0.411578 -0.0390947
vt 0.411578 -0.0602782
vt 0.422336 -0.0390947
vt 0.422336 -0.0602782
# 46 normals
vn 0.993326 0.115343 0
vn 1 -0.00021051 0
vn -0.0140084 -0.999902 1.6779e-006
vn -0.00830181 -0.999966 1.67801e-006
vn -9.23759e-008 -1 1.67806e-006
vn 0.00830475 -0.999965 1.67801e-006
vn 0.0140145 -0.999902 1.6779e-006
vn -1 -0.000206525 0
vn -0.993326 0.115341 0
vn -0.915176 0.403054 9.61283e-007
vn -0.743772 0.668434 4.82272e-006
vn 3.91271e-008 1 1.00684e-005
vn 0.743763 0.668443 4.82275e-006
vn 0.915169 0.40307 9.61322e-007
vn -0.996981 -0.0776509 1.52621e-005
vn -0.987836 -0.1555 1.05983e-005
vn -0.00312139 0.999995 -6.84764e-005
vn -0.00519776 0.999986 -6.92012e-005
vn -0.00104791 0.999999 -3.14544e-005
vn 0.00104827 0.999999 -3.14594e-005
vn 0.00312567 0.999995 -6.84872e-005
vn 0.00520013 0.999986 -6.92188e-005
vn 0.996981 -0.0776465 1.19161e-005
vn 0.987837 -0.155495 1.05677e-005
vn 0.936802 -0.349859 -3.42591e-005
vn 0.885735 -0.464192 -8.50443e-005
vn 0.772731 -0.634734 -9.67255e-005
vn 0.718061 -0.695981 -6.06129e-005
vn 0.280318 -0.959907 -2.31112e-005
vn -0.280316 -0.959908 -2.31113e-005
vn -0.718055 -0.695987 -6.0613e-005
vn -0.772721 -0.634745 -9.8577e-005
vn -0.885727 -0.464207 -8.91227e-005
vn -0.936797 -0.349874 -3.72321e-005
vn -1.66982e-006 4.774e-008 1
vn 2.4771e-007 1.09724e-007 -1
vn 0.99326 0.11591 0
vn 0.733891 -0.679267 -5.84283e-006
vn 0.0400931 -0.999196 -1.29011e-005
vn -0.0400588 -0.999197 -1.29011e-005
vn -0.733866 -0.679295 -5.84423e-006
vn -0.993261 0.115903 -8.89799e-010
vn -0.914183 0.405301 4.957e-006
vn -0.745886 0.666074 1.1461e-005
vn 0.745905 0.666052 1.14607e-005
vn 0.914193 0.405279 4.95657e-006
usemtl Texture
g Group
s off
f 1/1/1 3/3/1 2/2/2
f 3/3/1 4/4/2 2/2/2
f 2/5/3 4/7/3 5/6/4
f 2/5/3 5/6/4 6/8/4
f 6/8/4 5/6/4 7/9/5
f 5/6/4 8/10/5 7/9/5
f 7/9/5 8/10/5 9/11/6
f 7/9/5 9/11/6 10/12/6
f 10/12/6 9/11/6 11/13/7
f 9/11/6 12/14/7 11/13/7
f 11/15/8 12/17/8 13/16/9
f 11/15/8 13/16/9 14/18/9
f 14/18/9 13/16/9 15/19/10
f 13/16/9 16/20/10 15/19/10
f 15/19/10 16/20/10 17/2/11
f 15/19/10 17/2/11 18/4/11
f 18/21/11 17/23/11 19/22/12
f 17/23/11 20/24/12 19/22/12
f 19/22/12 20/24/12 21/25/13
f 19/22/12 21/25/13 22/26/13
f 22/27/13 21/29/13 23/28/14
f 21/29/13 24/30/14 23/28/14
f 23/28/14 24/30/14 3/3/1
f 23/28/14 3/3/1 1/1/1
f 25/31/8 27/32/8 26/16/15
f 25/31/8 26/16/15 28/18/16
f 29/33/17 30/35/19 27/34/18
f 29/33/17 27/34/18 25/36/18
f 31/22/12 32/24/12 30/35/19
f 31/22/12 30/35/19 29/33/17
f 33/37/20 34/38/21 32/24/12
f 33/37/20 32/24/12 31/22/12
f 35/39/22 36/40/22 34/38/21
f 35/39/22 34/38/21 33/37/20
f 37/1/23 38/3/24 36/41/2
f 37/1/23 36/41/2 35/42/2
f 39/43/25 40/44/26 38/3/24
f 39/43/25 38/3/24 37/1/23
f 41/45/27 42/46/28 40/44/26
f 41/45/27 40/44/26 39/43/25
f 43/9/29 44/10/30 42/47/28
f 43/9/29 42/47/28 41/48/27
f 45/49/31 46/50/32 44/10/30
f 45/49/31 44/10/30 43/9/29
f 47/51/33 48/53/34 46/52/32
f 47/51/33 46/52/32 45/54/31
f 28/18/16 26/16/15 48/53/34
f 28/18/16 48/53/34 47/51/33
f 27/55/35 4/57/35 3/56/35
f 27/55/35 3/56/35 26/58/35
f 30/59/35 5/60/35 4/57/35
f 30/59/35 4/57/35 27/55/35
f 32/61/35 8/62/35 5/60/35
f 32/61/35 5/60/35 30/59/35
f 34/63/35 9/64/35 8/62/35
f 34/63/35 8/62/35 32/61/35
f 36/65/35 12/66/35 9/64/35
f 36/65/35 9/64/35 34/63/35
f 38/67/35 13/68/35 12/66/35
f 38/67/35 12/66/35 36/65/35
f 40/69/35 16/70/35 13/68/35
f 40/69/35 13/68/35 38/67/35
f 42/71/35 17/72/35 16/70/35
f 42/71/35 16/70/35 40/69/35
f 44/73/35 20/74/35 17/72/35
f 44/73/35 17/72/35 42/71/35
f 46/75/35 21/76/35 20/74/35
f 46/75/35 20/74/35 44/73/35
f 48/77/35 24/78/35 21/76/35
f 48/77/35 21/76/35 46/75/35
f 26/58/35 3/56/35 24/78/35
f 26/58/35 24/78/35 48/77/35
f 1/79/36 2/81/36 25/80/36
f 28/82/36 1/79/36 25/80/36
f 2/81/36 6/84/36 29/83/36
f 25/80/36 2/81/36 29/83/36
f 6/84/36 7/86/36 31/85/36
f 29/83/36 6/84/36 31/85/36
f 7/86/36 10/88/36 33/87/36
f 31/85/36 7/86/36 33/87/36
f 10/88/36 11/90/36 35/89/36
f 33/87/36 10/88/36 35/89/36
f 11/90/36 14/92/36 37/91/36
f 35/89/36 11/90/36 37/91/36
f 14/92/36 15/94/36 39/93/36
f 37/91/36 14/92/36 39/93/36
f 15/94/36 18/96/36 41/95/36
f 39/93/36 15/94/36 41/95/36
f 18/96/36 19/98/36 43/97/36
f 41/95/36 18/96/36 43/97/36
f 19/98/36 22/100/36 45/99/36
f 43/97/36 19/98/36 45/99/36
f 22/100/36 23/102/36 47/101/36
f 45/99/36 22/100/36 47/101/36
f 23/102/36 1/79/36 28/82/36
f 47/101/36 23/102/36 28/82/36
f 49/103/36 51/105/36 50/104/36
f 52/106/35 54/108/35 53/107/35
f 49/109/37 52/111/37 51/110/38
f 52/111/37 53/112/38 51/110/38
f 51/105/36 55/113/36 50/104/36
f 53/107/35 54/108/35 56/114/35
f 51/115/38 53/117/38 56/116/39
f 51/115/38 56/116/39 55/118/39
f 55/113/36 57/119/36 50/104/36
f 56/114/35 54/108/35 58/120/35
f 55/118/39 56/116/39 57/121/5
f 56/116/39 58/122/5 57/121/5
f 57/119/36 59/123/36 50/104/36
f 58/120/35 54/108/35 60/124/35
f 57/121/5 58/122/5 60/125/40
f 57/121/5 60/125/40 59/126/40
f 59/123/36 61/127/36 50/104/36
f 60/124/35 54/108/35 62/128/35
f 59/126/40 60/125/40 61/129/41
f 60/125/40 62/130/41 61/129/41
f 61/127/36 63/131/36 50/104/36
f 62/128/35 54/108/35 64/132/35
f 61/133/41 62/135/41 64/134/42
f 61/133/41 64/134/42 63/136/42
f 63/131/36 65/137/36 50/104/36
f 64/132/35 54/108/35 66/138/35
f 63/136/42 64/134/42 65/139/43
f 64/134/42 66/140/43 65/139/43
f 65/137/36 67/141/36 50/104/36
f 66/138/35 54/108/35 68/142/35
f 65/139/43 66/140/43 68/143/44
f 65/139/43 68/143/44 67/144/44
f 67/141/36 69/145/36 50/104/36
f 68/142/35 54/108/35 70/146/35
f 67/147/44 68/149/44 69/148/12
f 68/149/44 70/150/12 69/148/12
f 69/145/36 71/151/36 50/104/36
f 70/146/35 54/108/35 72/152/35
f 69/148/12 70/150/12 72/153/45
f 69/148/12 72/153/45 71/154/45
f 71/151/36 73/155/36 50/104/36
f 72/152/35 54/108/35 74/156/35
f 71/157/45 72/159/45 73/158/46
f 72/159/45 74/160/46 73/158/46
f 73/155/36 49/103/36 50/104/36
f 74/156/35 54/108/35 52/106/35
f 73/158/46 74/160/46 52/111/37
f 73/158/46 52/111/37 49/109/37
