# Wavefront OBJ
# Created by fragMOTION 1.3.4
# http://www.fragmosoft.com

mtllib TALLWINDOW2.mtl
# 126 vertices
v 2.89408 1.50794 -2.01788
v 2.89408 1.50794 2.03344
v 4.64828 1.45474 2.03344
v 4.64828 1.45474 -2.01788
v 5.00198 63.789 2.03344
v 7.49408 63.6741 2.03344
v 4.91048 56.6919 2.03344
v 2.73098 56.7335 2.03344
v 5.00198 63.789 -2.01788
v 2.73098 56.7335 -2.01788
v 7.49408 63.6741 -2.01788
v 4.91048 56.6919 -2.01788
v 8.93518 69.5182 2.03344
v 11.5648 69.1543 2.03344
v 8.93518 69.5182 -2.01788
v 11.5648 69.1543 -2.01788
v 13.5746 73.8605 2.03344
v 15.0902 72.2525 2.03344
v 13.5746 73.8605 -2.01788
v 15.0902 72.2525 -2.01788
v 19.2206 76.9125 2.03344
v 19.4221 74.8954 2.03344
v 19.2206 76.9125 -2.01788
v 19.4221 74.8954 -2.01788
v 24.8666 73.8605 2.03344
v 23.754 72.2525 2.03344
v 24.8666 73.8605 -2.01788
v 23.754 72.2525 -2.01788
v 28.2566 69.9698 2.03344
v 26.03 69.4124 2.03344
v 28.2566 69.9698 -2.01788
v 26.03 69.4124 -2.01788
v 32.7778 63.2729 2.03344
v 30.8357 63.287 2.03344
v 32.7778 63.2729 -2.01788
v 30.8357 63.287 -2.01788
v 34.8563 56.1774 2.03344
v 32.7998 56.6459 2.03344
v 34.8563 56.1774 -2.01788
v 32.7998 56.6459 -2.01788
v 32.5327 1.41654 -2.01788
v 32.5327 1.41654 2.03344
v 34.8584 1.51894 2.03344
v 34.8584 1.51894 -2.01788
v 18.8703 2.82474 -1.67921
v 18.8703 2.82474 1.69477
v 19.7817 2.78144 1.69477
v 19.7817 2.78144 -1.67921
v 19.9654 59.1003 1.69477
v 21.2602 59.0069 1.69477
v 19.9179 53.3343 1.69477
v 18.7855 53.368 1.69477
v 19.9654 59.1003 -1.67921
v 18.7855 53.368 -1.67921
v 21.2602 59.0069 -1.67921
v 19.9179 53.3343 -1.67921
v 22.0089 63.755 1.69477
v 23.3751 63.4593 1.69477
v 22.0089 63.755 -1.67921
v 23.3751 63.4593 -1.67921
v 24.4192 67.2828 1.69477
v 25.2067 65.9765 1.69477
v 24.4192 67.2828 -1.67921
v 25.2067 65.9765 -1.67921
v 27.3526 69.7625 1.69477
v 27.4573 68.1237 1.69477
v 27.3526 69.7625 -1.67921
v 27.4573 68.1237 -1.67921
v 19.0299 2.93064 1.44255
v 19.0299 2.93064 -1.42699
v 18.1185 2.88714 1.44255
v 18.1185 2.88714 -1.42699
v 16.64 59.2662 1.44255
v 17.9348 59.3601 1.44255
v 17.9823 53.56 1.44255
v 19.1147 53.5939 1.44255
v 17.9348 59.3601 -1.42699
v 19.1147 53.5939 -1.42699
v 16.64 59.2662 -1.42699
v 17.9823 53.56 -1.42699
v 14.5251 63.7449 1.44255
v 15.8913 64.0424 1.44255
v 15.8913 64.0424 -1.42699
v 14.5251 63.7449 -1.42699
v 12.6935 66.277 1.44255
v 13.481 67.5911 1.44255
v 13.481 67.5911 -1.42699
v 12.6935 66.277 -1.42699
v 10.4429 68.4369 1.44255
v 10.5476 70.0854 1.44255
v 10.5476 70.0854 -1.42699
v 10.4429 68.4369 -1.42699
v 4.02688 3.77254 1.90506
v 34.4713 3.77254 1.90506
v 4.02688 1.67474 1.90506
v 34.4713 1.67474 1.90506
v 34.4713 3.77254 -1.90506
v 4.02688 3.77254 -1.90506
v 34.4713 1.67474 -1.90506
v 4.02688 1.67474 -1.90506
v 33.9871 56.0935 -0.0637133
v 18.8079 56.0935 -0.0637133
v 33.9434 2.77399 -0.0637129
v 33.9871 56.0935 0.0471361
v 33.9434 2.77398 0.0471358
v 18.8079 56.0935 0.0471361
v 31.825 2.56662 -0.0637126
v 31.825 2.56662 0.0471357
v 18.9189 2.52205 -0.0637128
v 18.9189 2.52204 0.0471362
v 6.01466 2.56662 -0.0637126
v 6.01466 2.56662 0.0471357
v 3.89444 2.77399 -0.0637129
v 3.89444 2.77398 0.0471358
v 3.62875 56.0935 -0.0637133
v 3.62875 56.0935 0.0471361
v 5.92906 63.3631 -0.0637126
v 6.30572 63.3631 0.0471359
v 12.1309 71.3749 -0.0637122
v 12.1309 71.3749 0.047136
v 19.438 76.0265 -0.0637137
v 19.438 76.0265 0.047134
v 25.7068 71.3749 -0.0637122
v 25.7068 71.3749 0.047136
v 31.9081 63.3631 -0.0637126
v 31.5314 63.3631 0.0471359
# 266 texture vertices
vt 0.650177 -0.00683594
vt 0.588118 -0.00683594
vt 0.588118 -0.0132058
vt 0.650177 -0.0132058
vt 0.474453 -0.131109
vt 0.476204 -0.140112
vt 0.582617 -0.130778
vt 0.581984 -0.122904
vt 0.593271 -0.0978701
vt 0.593271 -0.144778
vt 0.674695 -0.144778
vt 0.674695 -0.0978701
vt 0.327918 -0.217888
vt 0.325635 -0.226538
vt 0.465863 -0.234421
vt 0.466689 -0.226856
vt 0.14052 -0.0987436
vt 0.14052 -0.143905
vt 0.218096 -0.143905
vt 0.218096 -0.0987436
vt 0.387136 -0.145318
vt 0.392682 -0.154819
vt 0.527153 -0.0978701
vt 0.527153 -0.144778
vt 0.218999 -0.203758
vt 0.211765 -0.212886
vt 0.0796314 -0.0987436
vt 0.0796314 -0.143905
vt 0.320958 -0.16208
vt 0.345464 -0.167555
vt 0.556813 -0.0879314
vt 0.471843 -0.0879314
vt 0.471843 -0.104925
vt 0.556813 -0.104925
vt 0.157421 -0.191521
vt 0.125464 -0.196782
vt 0.588118 -0.0511223
vt 0.650177 -0.0511223
vt 0.650177 -0.038321
vt 0.588118 -0.038321
vt 0.274442 -0.182477
vt 0.305186 -0.183205
vt 0.556813 -0.0672503
vt 0.471843 -0.0672503
vt 0.104895 -0.176485
vt 0.0648046 -0.177184
vt 0.588118 -0.0668523
vt 0.650177 -0.0668523
vt 0.320958 -0.202875
vt 0.345464 -0.198855
vt 0.556813 -0.0465693
vt 0.471843 -0.0465693
vt 0.157421 -0.161449
vt 0.125464 -0.157587
vt 0.588118 -0.0825822
vt 0.650177 -0.0825822
vt 0.380254 -0.215122
vt 0.388749 -0.207078
vt 0.0705709 -0.143905
vt 0.0705709 -0.0987436
vt 0.0273438 -0.0987436
vt 0.0273438 -0.143905
vt 0.21387 -0.153548
vt 0.20279 -0.145819
vt 0.528375 -0.144778
vt 0.528375 -0.0978701
vt 0.495598 -0.0978701
vt 0.495598 -0.144778
vt 0.482318 -0.231456
vt 0.482104 -0.22444
vt 0.144978 -0.143905
vt 0.144978 -0.0987436
vt 0.335611 -0.136867
vt 0.335892 -0.130126
vt 0.599064 -0.144778
vt 0.599064 -0.0978701
vt 0.576449 -0.234413
vt 0.570518 -0.226984
vt 0.223813 -0.143905
vt 0.223813 -0.0987436
vt 0.467605 -0.13005
vt 0.476915 -0.122911
vt 0.675706 -0.144778
vt 0.675706 -0.0978701
vt 0.96327 -0.129831
vt 0.962459 -0.123494
vt 0.962798 -0.144778
vt 0.962798 -0.0978699
vt 0.949236 -0.229303
vt 0.950294 -0.223214
vt 0.495598 -0.143905
vt 0.495598 -0.0987436
vt 0.650177 -0.114459
vt 0.588118 -0.114459
vt 0.588118 -0.122904
vt 0.650177 -0.122904
vt 0.948282 -0.234421
vt 0.951052 -0.226019
vt 0.963852 -0.144778
vt 0.963852 -0.0978699
vt 0.963852 -0.130977
vt 0.961817 -0.122904
vt 0.494884 -0.143905
vt 0.494884 -0.0987436
vt 0.644989 -0.0648485
vt 0.593306 -0.0648485
vt 0.593306 -0.0681578
vt 0.644989 -0.0681578
vt 0.545912 -0.185168
vt 0.547335 -0.189846
vt 0.633789 -0.184996
vt 0.633274 -0.180905
vt 0.64738 -0.101791
vt 0.64738 -0.140857
vt 0.713534 -0.140857
vt 0.713534 -0.101791
vt 0.420678 -0.170105
vt 0.418822 -0.174599
vt 0.532752 -0.178694
vt 0.533422 -0.174764
vt 0.192375 -0.102519
vt 0.192375 -0.140129
vt 0.255402 -0.140129
vt 0.255402 -0.102519
vt 0.474971 -0.19255
vt 0.479478 -0.197486
vt 0.593663 -0.101791
vt 0.593663 -0.140857
vt 0.332187 -0.162764
vt 0.32631 -0.167506
vt 0.142907 -0.102519
vt 0.142907 -0.14013
vt 0.421205 -0.201259
vt 0.441115 -0.204103
vt 0.552951 -0.101791
vt 0.552951 -0.140857
vt 0.282158 -0.156406
vt 0.256194 -0.159139
vt 0.114939 -0.102519
vt 0.114939 -0.14013
vt 0.383414 -0.211856
vt 0.408391 -0.212234
vt 0.54971 -0.0374634
vt 0.478946 -0.0374634
vt 0.478946 -0.048208
vt 0.54971 -0.048208
vt 0.239484 -0.148594
vt 0.206912 -0.148958
vt 0.593306 -0.0960292
vt 0.644989 -0.0960292
vt 0.644989 -0.087857
vt 0.593306 -0.087857
vt 0.94305 -0.184504
vt 0.94239 -0.181211
vt 0.947602 -0.140857
vt 0.947602 -0.101791
vt 0.935864 -0.1784
vt 0.936725 -0.175237
vt 0.480857 -0.140129
vt 0.480857 -0.102519
vt 0.59717 -0.0654281
vt 0.641125 -0.0654281
vt 0.59717 -0.0621186
vt 0.641125 -0.0621186
vt 0.543384 -0.173154
vt 0.541952 -0.177832
vt 0.630349 -0.178004
vt 0.629832 -0.182094
vt 0.188451 -0.10533
vt 0.188451 -0.137318
vt 0.252517 -0.10533
vt 0.252517 -0.137318
vt 0.413659 -0.181647
vt 0.415525 -0.186142
vt 0.528262 -0.177552
vt 0.528936 -0.181482
vt 0.645466 -0.104712
vt 0.645466 -0.137937
vt 0.711317 -0.104712
vt 0.711317 -0.137937
vt 0.475125 -0.165513
vt 0.470591 -0.170449
vt 0.136428 -0.10533
vt 0.136428 -0.137318
vt 0.320598 -0.18874
vt 0.326511 -0.193482
vt 0.593779 -0.104712
vt 0.593779 -0.137937
vt 0.436535 -0.158896
vt 0.416507 -0.161741
vt 0.0970006 -0.10533
vt 0.0970006 -0.137318
vt 0.250068 -0.197107
vt 0.276186 -0.19984
vt 0.564558 -0.104712
vt 0.564558 -0.137937
vt 0.403617 -0.150765
vt 0.378492 -0.151144
vt 0.484236 -0.099019
vt 0.54442 -0.099019
vt 0.484236 -0.0882744
vt 0.54442 -0.0882744
vt 0.200493 -0.207289
vt 0.233258 -0.207652
vt 0.641125 -0.0342471
vt 0.59717 -0.0342471
vt 0.641125 -0.0424196
vt 0.59717 -0.0424196
vt 0.94144 -0.178495
vt 0.940778 -0.181788
vt 0.4792 -0.10533
vt 0.4792 -0.137318
vt 0.933761 -0.177846
vt 0.934625 -0.18101
vt 0.946881 -0.104712
vt 0.946881 -0.137937
vt 0.927945 -0.127586
vt 0.913936 -0.233023
vt 0.959917 -0.127586
vt 0.945908 -0.233023
vt 0.917026 -0.124248
vt 0.904227 -0.225371
vt 0.95872 -0.124248
vt 0.94592 -0.225371
vt 0.469845 -0.100175
vt 0.469845 -0.142647
vt 0.493153 -0.100175
vt 0.493153 -0.142647
vt 0.936662 -0.0991763
vt 0.936662 -0.143292
vt 0.960872 -0.0991763
vt 0.960872 -0.143292
vt 0.554448 -0.122904
vt 0.554448 -0.0113876
vt 0.474536 -0.122904
vt 0.474536 -0.0113876
vt 0.590084 -0.0109492
vt 0.590084 -0.121499
vt 0.648449 -0.0109492
vt 0.648449 -0.121499
vt 0.421992 -0.468165
vt 0.549011 -0.464287
vt 0.404324 -0.983417
vt 0.421966 -0.467442
vt 0.404297 -0.982695
vt 0.548983 -0.463564
vt 0.423917 -0.985251
vt 0.423889 -0.984528
vt 0.542294 -0.984592
vt 0.542267 -0.983869
vt 0.660581 -0.983068
vt 0.660554 -0.982345
vt 0.679853 -0.980877
vt 0.679826 -0.980154
vt 0.688194 -0.463003
vt 0.688167 -0.46228
vt 0.667448 -0.39569
vt 0.664037 -0.394899
vt 0.611452 -0.316738
vt 0.611493 -0.316015
vt 0.544974 -0.270228
vt 0.545015 -0.269505
vt 0.487031 -0.314282
vt 0.487073 -0.313559
vt 0.429354 -0.39099
vt 0.432848 -0.390335
# 73 normals
vn -0.0303131 -0.99954 0
vn 0 0 1
vn -0.951904 0.306396 0
vn 0 0 -1
vn 0.937854 -0.347031 0
vn -0.82442 0.565979 0
vn 0.802765 -0.596295 0
vn -0.683343 0.730097 0
vn 0.66013 -0.751151 0
vn -0.475529 0.8797 0
vn 0.520822 -0.853665 0
vn 0.475529 0.8797 0
vn -0.520822 -0.853665 0
vn 0.753954 0.656927 0
vn -0.780344 -0.625351 0
vn 0.828803 0.55954 0
vn -0.786762 -0.617257 0
vn 0.959673 0.281119 0
vn -0.958941 -0.283606 0
vn -0.999996 -0.00295335 0
vn 0.999989 -0.00474674 0
vn 0.0439879 -0.999032 0
vn -0.999988 0.00483616 0
vn 1 3.83853e-005 0
vn -0.0474565 -0.998873 0
vn -0.979466 0.201607 0
vn 0.973127 -0.23027 0
vn -0.915646 0.401985 0
vn 0.903277 -0.429058 0
vn -0.825685 0.564132 0
vn 0.808597 -0.588363 0
vn -0.645576 0.763696 0
vn 0.690291 -0.723532 0
vn -0.999999 -0.00167778 0
vn 0.999996 -0.0026942 0
vn 0.0476734 -0.998863 0
vn 0.9797 0.20047 0
vn -0.97343 -0.228985 0
vn 0.916517 0.399996 0
vn -0.904252 -0.426999 0
vn 0.827231 0.561861 0
vn -0.810245 -0.586092 0
vn 0.647786 0.761822 0
vn -0.69242 -0.721495 0
vn 0.999999 -0.00167381 0
vn -1 0 0
vn 0 1 0
vn 0 -1 0
vn 0.129247 0.0301557 0.991154
vn 0.995317 0.0966666 0
vn 0.804058 -0.594551 -1.04602e-005
vn 0.968863 0.0784417 0.234844
vn 0.0729352 -0.997337 -2.85509e-005
vn -0.0728734 -0.997341 -2.8551e-005
vn -0.803037 -0.595929 -1.04845e-005
vn -0.129168 0.0328527 0.991078
vn -0.968326 0.0844907 0.23496
vn -0.99446 0.105116 0
vn -0.19257 0.0726726 0.978589
vn -0.802255 0.295782 0.518556
vn -0.794711 0.069342 0.603014
vn -0.12775 0.0641538 0.989729
vn -0.602731 0.489231 0.630372
vn -0.794021 0.607891 4.27798e-005
vn -0.75195 0.610351 0.249083
vn 0.0452163 0.998977 3.51511e-005
vn 0.127751 0.0641479 0.98973
vn 0.778412 0.5776 0.24587
vn 0.815499 0.578759 4.07297e-005
vn 0.192637 0.0706437 0.978724
vn 0.804864 0.287504 0.519168
vn 0.626821 0.465116 0.625111
vn 0.795435 0.0644005 0.602608
usemtl Texture
g Group
s off
f 1/1/1 3/3/1 2/2/1
f 1/1/1 4/4/1 3/3/1
f 5/5/2 7/7/2 6/6/2
f 8/8/2 7/7/2 5/5/2
f 9/9/3 8/11/3 5/10/3
f 10/12/3 8/11/3 9/9/3
f 11/13/4 10/15/4 9/14/4
f 12/16/4 10/15/4 11/13/4
f 6/17/5 12/19/5 11/18/5
f 7/20/5 12/19/5 6/17/5
f 13/21/2 6/6/2 14/22/2
f 5/5/2 6/6/2 13/21/2
f 15/23/6 5/10/6 13/24/6
f 9/9/6 5/10/6 15/23/6
f 16/25/4 9/14/4 15/26/4
f 11/13/4 9/14/4 16/25/4
f 14/27/7 11/18/7 16/28/7
f 6/17/7 11/18/7 14/27/7
f 17/29/2 14/22/2 18/30/2
f 13/21/2 14/22/2 17/29/2
f 19/31/8 13/33/8 17/32/8
f 15/34/8 13/33/8 19/31/8
f 20/35/4 15/26/4 19/36/4
f 16/25/4 15/26/4 20/35/4
f 18/37/9 16/39/9 20/38/9
f 14/40/9 16/39/9 18/37/9
f 21/41/2 18/30/2 22/42/2
f 17/29/2 18/30/2 21/41/2
f 23/43/10 17/32/10 21/44/10
f 19/31/10 17/32/10 23/43/10
f 24/45/4 19/36/4 23/46/4
f 20/35/4 19/36/4 24/45/4
f 22/47/11 20/38/11 24/48/11
f 18/37/11 20/38/11 22/47/11
f 25/49/2 22/42/2 26/50/2
f 21/41/2 22/42/2 25/49/2
f 27/51/12 21/44/12 25/52/12
f 23/43/12 21/44/12 27/51/12
f 28/53/4 23/46/4 27/54/4
f 24/45/4 23/46/4 28/53/4
f 26/55/13 24/48/13 28/56/13
f 22/47/13 24/48/13 26/55/13
f 29/57/2 26/50/2 30/58/2
f 25/49/2 26/50/2 29/57/2
f 31/59/14 25/61/14 29/60/14
f 27/62/14 25/61/14 31/59/14
f 32/63/4 27/54/4 31/64/4
f 28/53/4 27/54/4 32/63/4
f 30/65/15 28/67/15 32/66/15
f 26/68/15 28/67/15 30/65/15
f 33/69/2 30/58/2 34/70/2
f 29/57/2 30/58/2 33/69/2
f 35/71/16 29/60/16 33/72/16
f 31/59/16 29/60/16 35/71/16
f 36/73/4 31/64/4 35/74/4
f 32/63/4 31/64/4 36/73/4
f 34/75/17 32/66/17 36/76/17
f 30/65/17 32/66/17 34/75/17
f 37/77/2 34/70/2 38/78/2
f 33/69/2 34/70/2 37/77/2
f 39/79/18 33/72/18 37/80/18
f 35/71/18 33/72/18 39/79/18
f 40/81/4 35/74/4 39/82/4
f 36/73/4 35/74/4 40/81/4
f 38/83/19 36/76/19 40/84/19
f 34/75/19 36/76/19 38/83/19
f 3/85/2 7/7/2 8/8/2
f 3/85/2 8/8/2 2/86/2
f 2/87/20 8/11/20 10/12/20
f 2/87/20 10/12/20 1/88/20
f 1/89/4 10/15/4 12/16/4
f 1/89/4 12/16/4 4/90/4
f 4/91/21 12/19/21 7/20/21
f 4/91/21 7/20/21 3/92/21
f 41/93/22 43/95/22 42/94/22
f 41/93/22 44/96/22 43/95/22
f 43/97/2 37/77/2 38/78/2
f 43/97/2 38/78/2 42/98/2
f 42/99/23 38/83/23 40/84/23
f 42/99/23 40/84/23 41/100/23
f 41/101/4 40/81/4 39/82/4
f 41/101/4 39/82/4 44/102/4
f 44/103/24 39/79/24 37/80/24
f 44/103/24 37/80/24 43/104/24
f 45/105/25 47/107/25 46/106/25
f 45/105/25 48/108/25 47/107/25
f 49/109/2 51/111/2 50/110/2
f 52/112/2 51/111/2 49/109/2
f 53/113/26 52/115/26 49/114/26
f 54/116/26 52/115/26 53/113/26
f 55/117/4 54/119/4 53/118/4
f 56/120/4 54/119/4 55/117/4
f 50/121/27 56/123/27 55/122/27
f 51/124/27 56/123/27 50/121/27
f 57/125/2 50/110/2 58/126/2
f 49/109/2 50/110/2 57/125/2
f 59/127/28 49/114/28 57/128/28
f 53/113/28 49/114/28 59/127/28
f 60/129/4 53/118/4 59/130/4
f 55/117/4 53/118/4 60/129/4
f 58/131/29 55/122/29 60/132/29
f 50/121/29 55/122/29 58/131/29
f 61/133/2 58/126/2 62/134/2
f 57/125/2 58/126/2 61/133/2
f 63/135/30 57/128/30 61/136/30
f 59/127/30 57/128/30 63/135/30
f 64/137/4 59/130/4 63/138/4
f 60/129/4 59/130/4 64/137/4
f 62/139/31 60/132/31 64/140/31
f 58/131/31 60/132/31 62/139/31
f 65/141/2 62/134/2 66/142/2
f 61/133/2 62/134/2 65/141/2
f 67/143/32 61/145/32 65/144/32
f 63/146/32 61/145/32 67/143/32
f 68/147/4 63/138/4 67/148/4
f 64/137/4 63/138/4 68/147/4
f 66/149/33 64/151/33 68/150/33
f 62/152/33 64/151/33 66/149/33
f 47/153/2 51/111/2 52/112/2
f 47/153/2 52/112/2 46/154/2
f 46/155/34 52/115/34 54/116/34
f 46/155/34 54/116/34 45/156/34
f 45/157/4 54/119/4 56/120/4
f 45/157/4 56/120/4 48/158/4
f 48/159/35 56/123/35 51/124/35
f 48/159/35 51/124/35 47/160/35
f 69/161/36 71/163/36 70/162/36
f 71/163/36 72/164/36 70/162/36
f 73/165/2 75/167/2 74/166/2
f 74/166/2 75/167/2 76/168/2
f 74/169/37 76/171/37 77/170/37
f 77/170/37 76/171/37 78/172/37
f 77/173/4 78/175/4 79/174/4
f 79/174/4 78/175/4 80/176/4
f 79/177/38 80/179/38 73/178/38
f 73/178/38 80/179/38 75/180/38
f 81/181/2 73/165/2 82/182/2
f 82/182/2 73/165/2 74/166/2
f 82/183/39 74/169/39 83/184/39
f 83/184/39 74/169/39 77/170/39
f 83/185/4 77/173/4 84/186/4
f 84/186/4 77/173/4 79/174/4
f 84/187/40 79/177/40 81/188/40
f 81/188/40 79/177/40 73/178/40
f 85/189/2 81/181/2 86/190/2
f 86/190/2 81/181/2 82/182/2
f 86/191/41 82/183/41 87/192/41
f 87/192/41 82/183/41 83/184/41
f 87/193/4 83/185/4 88/194/4
f 88/194/4 83/185/4 84/186/4
f 88/195/42 84/187/42 85/196/42
f 85/196/42 84/187/42 81/188/42
f 89/197/2 85/189/2 90/198/2
f 90/198/2 85/189/2 86/190/2
f 90/199/43 86/201/43 91/200/43
f 91/200/43 86/201/43 87/202/43
f 91/203/4 87/193/4 92/204/4
f 92/204/4 87/193/4 88/194/4
f 92/205/44 88/207/44 89/206/44
f 89/206/44 88/207/44 85/208/44
f 76/168/2 75/167/2 71/209/2
f 69/210/2 76/168/2 71/209/2
f 78/172/45 76/171/45 69/211/45
f 70/212/45 78/172/45 69/211/45
f 80/176/4 78/175/4 70/213/4
f 72/214/4 80/176/4 70/213/4
f 75/180/20 80/179/20 72/215/20
f 71/216/20 75/180/20 72/215/20
f 93/217/2 95/219/2 94/218/2
f 95/219/2 96/220/2 94/218/2
f 97/221/4 99/223/4 98/222/4
f 99/223/4 100/224/4 98/222/4
f 94/225/24 96/227/24 97/226/24
f 96/227/24 99/228/24 97/226/24
f 98/229/46 100/231/46 93/230/46
f 100/231/46 95/232/46 93/230/46
f 98/233/47 93/235/47 97/234/47
f 93/235/47 94/236/47 97/234/47
f 95/237/48 100/239/48 96/238/48
f 100/239/48 99/240/48 96/238/48
f 101/241/4 103/243/4 102/242/4
f 104/244/49 106/246/2 105/245/2
f 101/241/50 104/244/52 103/243/51
f 104/244/52 105/245/51 103/243/51
f 103/243/4 107/247/4 102/242/4
f 105/245/2 106/246/2 108/248/2
f 103/243/51 105/245/51 108/248/53
f 103/243/51 108/248/53 107/247/53
f 107/247/4 109/249/4 102/242/4
f 108/248/2 106/246/2 110/250/2
f 107/247/53 108/248/53 109/249/48
f 108/248/53 110/250/48 109/249/48
f 109/249/4 111/251/4 102/242/4
f 110/250/2 106/246/2 112/252/2
f 109/249/48 110/250/48 112/252/54
f 109/249/48 112/252/54 111/251/54
f 111/251/4 113/253/4 102/242/4
f 112/252/2 106/246/2 114/254/2
f 111/251/54 112/252/54 113/253/55
f 112/252/54 114/254/55 113/253/55
f 113/253/4 115/255/4 102/242/4
f 114/254/2 106/246/2 116/256/56
f 113/253/55 114/254/55 116/256/57
f 113/253/55 116/256/57 115/255/58
f 115/255/4 117/257/4 102/242/4
f 116/256/56 106/246/2 118/258/59
f 115/255/58 116/256/57 117/257/60
f 116/256/61 118/258/59 117/257/60
f 117/257/4 119/259/4 102/242/4
f 118/258/59 106/246/2 120/260/62
f 117/257/60 118/258/59 120/260/63
f 117/257/60 120/260/65 119/259/64
f 119/259/4 121/261/4 102/242/4
f 120/260/62 106/246/2 122/262/2
f 119/259/64 120/260/65 121/261/66
f 120/260/65 122/262/66 121/261/66
f 121/261/4 123/263/4 102/242/4
f 122/262/2 106/246/2 124/264/67
f 121/261/66 122/262/66 124/264/68
f 121/261/66 124/264/68 123/263/69
f 123/263/4 125/265/4 102/242/4
f 124/264/67 106/246/2 126/266/70
f 123/263/69 124/264/68 125/265/71
f 124/264/72 126/266/70 125/265/71
f 125/265/4 101/241/4 102/242/4
f 126/266/70 106/246/2 104/244/49
f 125/265/71 126/266/70 104/244/73
f 125/265/71 104/244/52 101/241/50
